<?xml version="1.0" encoding="UTF-8"?><svg xmlns="http://www.w3.org/2000/svg" xmlns:xlink="http://www.w3.org/1999/xlink" height="563.3" preserveAspectRatio="xMidYMid meet" version="1.0" viewBox="-0.6 -3.8 273.0 563.3" width="273.0" zoomAndPan="magnify"><g id="change1_1"><path d="M260.697,90.918c0,0.423-0.056,0.831-0.146,1.228c0.659,5.773,6.51,59.926-3.362,78.372 c-10.977,20.514-81.084,11.995-92.246,10.498l14.795,76.936c0.246,0.683,28.471,82.438,36.855,121.014 c8.389,38.59,15.047,131.16,15.113,132.092c0.02,0.275-0.076,0.549-0.266,0.752s-0.455,0.318-0.732,0.318h-7.119 c0.44,4.474,0.783,7.92,0.926,9.346c5.357,1.211,37.256,8.926,43.389,22.229c1.16,2.514,1.078,4.748-0.244,6.641 c-3.613,5.176-16.65,6.592-29.828,6.592c-7.238,0-14.516-0.426-20.301-0.893c-17.264-1.389-35.008-6.883-35.186-6.938 c-0.182-0.057-0.321-0.172-0.438-0.305c-0.404-0.086-0.733-0.404-0.788-0.838l-19.152-151.793 c-12.936-34.658-28.554-70.76-32.328-71.25c-1.125,1.729-2.06,21.168-2.883,38.318c-1.142,23.766-2.436,50.701-5.194,61.734 c-5.035,20.141-28.588,87.504-28.825,88.182c-0.146,0.412-0.509,0.674-0.976,0.67l-14.401-0.447 c-1.069,4.219-1.939,7.638-2.336,9.197c5.817,1.855,36.22,12.137,41.149,25.729c0.943,2.604,0.674,4.824-0.803,6.6 c-2.848,3.424-10.209,4.588-18.908,4.588c-10.406,0.002-22.727-1.666-31.523-3.127c-17.088-2.84-35.22-10.35-35.4-10.424 c-0.415-0.173-0.636-0.593-0.596-1.017c-0.024-0.126-0.026-0.258,0.001-0.391c1.051-5.141,25.778-126.012,29.147-136.117 c3.292-9.881-1.136-134.857-1.181-136.118l-8.438-57.01c-0.138,0.044-0.295,0.099-0.43,0.141c-5.192,1.613-10.292,2.41-15.123,2.41 c-8.307,0-15.824-2.354-21.687-6.953c-7.73-6.066-11.801-15.484-11.167-25.839c1.176-19.206,17.718-40.854,39.334-51.471 c10.355-5.088,18.736-7.867,24.855-9.896c3.312-1.099,5.928-1.967,7.608-2.807c1.695-0.848,2.641-3.873,2.986-5.526 c-8.367-2.781-15.697-8.316-20.766-16.003c-1.664,0.646-3.322,0.93-4.927,0.93c-4.582,0-8.755-2.289-11.537-4.936 c-4.24-4.033-5.97-9.229-4.516-13.56c0.906-2.698,2.519-4.615,4.793-5.7c0.629-0.3,1.277-0.514,1.927-0.67 c-13.011-42.002-2.68-56.144,16.851-64.397c18.33-7.743,69.363-14.796,73.765-8.7c0.806,1.115,1.014,2.331,0.604,3.516 c-0.972,2.805-5.354,4.921-8.393,6.084c6.106,2.059,19.309,7.013,21.633,12.052c0.48,1.039,0.514,2.095,0.1,3.051 c-2.141,4.919-8.239,4.906-12.072,4.353c2.639,2.968,6.541,8.153,5.961,12.314c-0.269,1.922-1.407,3.414-3.384,4.435 c-0.613,0.316-1.275,0.53-1.967,0.675c0.114,1.701,0.45,7.598,0.276,15.369c1.691-0.524,3.736-0.859,5.838-0.415 c2.559,0.541,4.666,2.104,6.268,4.647c2.381,3.78,1.875,9.113-1.318,13.919c-3.264,4.91-8.368,7.822-13.449,7.823 c-0.639,0-1.277-0.063-1.911-0.157c-1.497,4.344-3.71,8.455-6.68,12.138c-3.493,4.331-7.764,7.799-12.545,10.313 c0.003,0.008,0.009,0.014,0.011,0.022c0.223,0.749,1.113,2.868,2.288,2.68c3.812-0.544,15.403-2.2,34.451,0.566 c4.384,0.636,11.117,2.043,18.734,3.791c15.288-6.981,25.563-10.057,28.022-5.539c0.514,0.94,0.584,1.993,0.207,3.128 c-0.803,2.419-3.719,5.068-7.17,7.499c14.141,3.545,27.104,6.995,31.025,8.045l1.684-36.111h-10.178 c-3.082,0-5.588-2.506-5.588-5.587V71.597c-0.462-0.158-7.467-2.755-6.68-13.811c0.479-6.702,3.306-12.222,6.68-13.243V12.563 c0-3.081,2.506-5.587,5.588-5.587h46.639c3.08,0,5.586,2.506,5.586,5.587v26.195c7.445,4.11,11.717,17.954,9.109,31.245 c-2.761,14.091-8.456,18.482-9.109,18.945V90.918z" fill="#010043"/></g><g id="change2_1"><path d="M244.945,41.141h4.96c0.282-1.055,0.921-1.983,1.886-2.645c1.621-1.11,3.949-1.366,6.549-0.714 c0.122,0.031,0.237,0.089,0.357,0.125V12.563c0-1.978-1.609-3.587-3.586-3.587h-46.639c-1.979,0-3.588,1.609-3.588,3.587v31.942 c0.987,0.28,2.168,1.088,3.031,3.184c2.291,5.567-1.38,16.889-3.031,21.421v21.809c0,1.978,1.609,3.587,3.588,3.587h46.639 c1.607,0,2.955-1.07,3.409-2.531c0-0.003-0.002-0.021-0.003-0.023c-0.026-0.219,0.036-0.421,0.136-0.599 c0.018-0.144,0.044-0.286,0.044-0.434v-9.316l-0.152-2.661c-1.223-0.581-3.916-1.994-5.689-3.896c-0.002,0-0.004,0.001-0.006,0.001 h-7.904c-0.553,0-1-0.447-1-1v-7.905c0-0.553,0.447-1,1-1h5.741c-0.405-0.631-0.698-1.33-0.816-2.095h-4.925c-0.553,0-1-0.447-1-1 v-7.905c0-0.553,0.447-1,1-1h4.219c-0.302-0.637-0.506-1.332-0.555-2.095h-3.665c-0.553,0-1-0.447-1-1v-7.905 C243.945,41.588,244.392,41.141,244.945,41.141z M219.85,86.046c0,0.553-0.447,1-1,1h-7.904c-0.553,0-1-0.447-1-1v-7.905 c0-0.553,0.447-1,1-1h7.904c0.553,0,1,0.447,1,1V86.046z M219.85,74.046c0,0.553-0.447,1-1,1h-7.904c-0.553,0-1-0.447-1-1v-7.905 c0-0.553,0.447-1,1-1h7.904c0.553,0,1,0.447,1,1V74.046z M219.85,62.046c0,0.553-0.447,1-1,1h-7.904c-0.553,0-1-0.447-1-1v-7.905 c0-0.553,0.447-1,1-1h7.904c0.553,0,1,0.447,1,1V62.046z M219.85,50.046c0,0.553-0.447,1-1,1h-7.904c-0.553,0-1-0.447-1-1v-7.905 c0-0.553,0.447-1,1-1h7.904c0.553,0,1,0.447,1,1V50.046z M230.98,86.046c0,0.553-0.447,1-1,1h-7.906c-0.553,0-1-0.447-1-1v-7.905 c0-0.553,0.447-1,1-1h7.906c0.553,0,1,0.447,1,1V86.046z M230.98,74.046c0,0.553-0.447,1-1,1h-7.906c-0.553,0-1-0.447-1-1v-7.905 c0-0.553,0.447-1,1-1h7.906c0.553,0,1,0.447,1,1V74.046z M230.98,62.046c0,0.553-0.447,1-1,1h-7.906c-0.553,0-1-0.447-1-1v-7.905 c0-0.553,0.447-1,1-1h7.906c0.553,0,1,0.447,1,1V62.046z M230.98,50.046c0,0.553-0.447,1-1,1h-7.906c-0.553,0-1-0.447-1-1v-7.905 c0-0.553,0.447-1,1-1h7.906c0.553,0,1,0.447,1,1V50.046z M242.414,86.046c0,0.553-0.447,1-1,1h-7.904c-0.553,0-1-0.447-1-1v-7.905 c0-0.553,0.447-1,1-1h7.904c0.553,0,1,0.447,1,1V86.046z M242.414,74.046c0,0.553-0.447,1-1,1h-7.904c-0.553,0-1-0.447-1-1v-7.905 c0-0.553,0.447-1,1-1h7.904c0.553,0,1,0.447,1,1V74.046z M242.414,62.046c0,0.553-0.447,1-1,1h-7.904c-0.553,0-1-0.447-1-1v-7.905 c0-0.553,0.447-1,1-1h7.904c0.553,0,1,0.447,1,1V62.046z M242.414,50.046c0,0.553-0.447,1-1,1h-7.904c-0.553,0-1-0.447-1-1v-7.905 c0-0.553,0.447-1,1-1h7.904c0.553,0,1,0.447,1,1V50.046z M244.945,77.141h7.904c0.553,0,1,0.447,1,1v7.905c0,0.553-0.447,1-1,1 h-7.904c-0.553,0-1-0.447-1-1v-7.905C243.945,77.588,244.392,77.141,244.945,77.141z M210.098,33.54c-0.553,0-1-0.447-1-1V18.705 c0-0.553,0.447-1,1-1h43.389c0.553,0,1,0.447,1,1V32.54c0,0.553-0.447,1-1,1H210.098z M214.641,379.391 c7.869,36.203,14.223,120.264,14.992,130.736h-51.271l-14.424-114.324c-0.01-0.076-0.027-0.152-0.055-0.225 c-4.439-11.898-26.938-71.316-33.871-72.625c-0.659-0.125-1.275,0.086-1.729,0.594c-1.561,1.744-2.239,12.82-3.525,39.594 c-1.137,23.674-2.426,50.504-5.136,61.346c-4.739,18.953-26.017,80.104-28.532,87.314l-53.022-1.648 c7.88-38.042,19.722-94.516,21.919-101.108c3.265-9.796-0.549-121.745-1.043-135.674c11.255,1.291,22.222,1.954,32.936,1.954 c30.512,0,58.979-5.268,86.266-15.883C181.358,268.792,206.773,343.202,214.641,379.391z" fill="#83d8c8"/></g><g id="change3_1"><path d="M249.979,43.141c0.353,0.911,1.073,1.797,1.87,2.568v0.881c-1.314,0.4-2.484,1.156-2.986,2.455h-2.919v-5.905 H249.979z M245.945,85.046h5.904v-5.905h-5.904V85.046z M234.51,49.046h5.904v-5.905h-5.904V49.046z M234.51,61.046h5.904v-5.905 h-5.904V61.046z M211.098,19.705V31.54h41.389V19.705H211.098z M245.945,55.141v5.905h4.044c0.038-0.152,0.051-0.297,0.104-0.452 c0.381-1.116,1.045-1.956,1.756-2.611v-1.708c-0.441-0.333-0.881-0.705-1.293-1.134H245.945z M245.945,73.046h5.566 c-0.233-0.553-0.368-1.128-0.344-1.725c0.041-0.99,0.305-1.776,0.682-2.411v-1.77h-5.904V73.046z M123.634,116.163 c-5.844,0.119-9.748,0.672-11.654,0.943c-0.378,0.054-0.725,0.019-1.057-0.056l-9.855,10.613c7.826,3.772,16.177,7.496,18.509,8.076 C120.244,133.189,122.271,123.136,123.634,116.163z M211.945,61.046h5.904v-5.905h-5.904V61.046z M211.945,73.046h5.904v-5.905 h-5.904V73.046z M211.945,85.046h5.904v-5.905h-5.904V85.046z M211.945,49.046h5.904v-5.905h-5.904V49.046z M223.074,85.046h5.906 v-5.905h-5.906V85.046z M234.51,85.046h5.904v-5.905h-5.904V85.046z M223.074,49.046h5.906v-5.905h-5.906V49.046z M223.074,61.046 h5.906v-5.905h-5.906V61.046z M223.074,73.046h5.906v-5.905h-5.906V73.046z M234.51,73.046h5.904v-5.905h-5.904V73.046z M97.956,128.655l-24.75-5.919c-0.126-0.03-0.237-0.087-0.337-0.156c-0.04,0.022-0.071,0.058-0.112,0.078 c-1.809,0.904-4.485,1.792-7.874,2.916c-0.99,0.328-2.061,0.686-3.168,1.061c10.476,6.09,25.827,14.819,28.871,16.04 C91.542,141.174,94.889,134.758,97.956,128.655z M163.84,178.844c0.346,0.051,15.32,2.155,33.142,2.896 c-1.293-5.889-6.338-31.589-0.933-52.043c0.046-0.172,0.144-0.31,0.26-0.429c-3.968-1.02-8.242-2.106-12.595-3.193 c-4.468,2.869-9.266,5.254-11.44,6.291c2.039,3.471,8.816,15.389,10.01,22.552c1.031,6.188-6.094,12.495-10.344,13.558 c-2.955,0.742-6.903,0.154-7.609,0.039c-6.401,3.726-15.15,7.161-23.852,5.221c-5.006,2.483-66.142,32.723-90.079,40.915 l8.385,56.694c43.221,5.011,82.113,0.48,118.839-13.848l-14.909-77.474c-0.061-0.317,0.035-0.645,0.26-0.879 C163.197,178.909,163.521,178.794,163.84,178.844z M140.369,131.493c7.869-3.995,15.095-7.606,21.551-10.634 c-6.515-1.467-12.208-2.629-16.061-3.189c-8.119-1.178-14.85-1.541-20.183-1.531c-1.059,5.432-3.916,19.922-4.472,21.036 c-0.487,0.978-0.99,1.985-21.337-7.869c-7.33,14.62-8.109,15.141-8.368,15.312c-0.1,0.066-0.2,0.134-0.414,0.134 c-1.171,0-5.731-2.013-31.87-17.258c-5.246,1.833-11.583,4.261-18.934,7.872c-18.526,9.099-33.198,26.456-37.191,43.14 c6.452-2.838,46.799-20.005,112.19-35.412C119.459,142.112,129.149,137.191,140.369,131.493z" fill="#f4b47e"/></g><g id="change4_1"><path d="M130.361,67.615c0.041-0.028,4.184-2.783,8.259-1.918c2.009,0.425,3.687,1.689,4.989,3.758 c1.955,3.104,1.459,7.605-1.293,11.745c-2.421,3.642-7.253,7.525-13.045,6.846c1.419-4.928,1.891-10.131,1.328-15.383l-0.528-4.928 C130.17,67.707,130.27,67.675,130.361,67.615z M206.068,48.45c-0.4-0.972-1.084-2.082-2.109-2.082c-0.078,0-0.156,0.006-0.236,0.019 c-1.992,0.321-5.02,4.511-5.521,11.542c-0.531,7.429,2.834,10.372,4.482,11.357C204.016,65.743,208.225,53.693,206.068,48.45z M140.588,171.708c7.356,1.762,14.967-0.813,20.944-3.988c6.519-3.463,11.091-7.642,11.177-7.723c0.4-0.378,1.039-0.355,1.412,0.05 c0.377,0.403,0.355,1.036-0.049,1.413c-0.27,0.252-2.903,2.668-6.952,5.335c1.355,0.08,3,0.073,4.335-0.26 c3.438-0.86,9.68-6.345,8.855-11.29c-1.316-7.896-10.227-22.649-10.316-22.798c-0.146-0.243-0.184-0.539-0.102-0.812 c0.084-0.272,0.279-0.496,0.539-0.615c5.234-2.407,19.17-9.719,20.781-14.578c0.201-0.604,0.18-1.094-0.064-1.541 c-2.965-5.439-31.193,8.89-49.873,18.375c-11.335,5.756-21.125,10.727-25.537,11.767C54.763,159.409,15.66,175.293,5.591,179.604 c-1.65,0.706-2.548,1.113-2.606,1.14c-0.119,0.054-0.245,0.074-0.368,0.08c-0.262,1.457-0.469,2.908-0.557,4.343 c-0.593,9.688,3.2,18.488,10.406,24.142c8.748,6.865,21.499,8.396,34.981,4.207c0.302-0.094,0.644-0.211,0.962-0.315 c0.15-0.243,0.39-0.427,0.694-0.472c0.183-0.025,0.353,0.014,0.513,0.078c24.561-8.362,89.619-40.684,90.293-41.02 C140.117,171.68,140.359,171.652,140.588,171.708z M109.167,116.004c-0.762-0.791-1.287-1.837-1.577-2.705 c-3.932,1.82-8.159,3.04-12.593,3.515l-3.158,0.339c-1.463,0.157-2.92,0.234-4.365,0.234c-3.669,0-7.261-0.513-10.706-1.468 c-0.263,1.232-0.883,3.437-2.145,5.1l24.457,5.848L109.167,116.004z M257.855,39.722c-2.039-0.51-3.789-0.357-4.934,0.425 c-0.666,0.456-1.082,1.107-1.174,1.835c-0.121,0.971,2.074,3.056,4.199,4.395c0.013,0.009,0.021,0.022,0.034,0.031 c3.366,0.726,6.699,3.427,8.245,5.251c0.355,0.422,0.305,1.053-0.117,1.409c-0.188,0.159-0.418,0.237-0.646,0.237 c-0.283,0-0.564-0.12-0.764-0.354c-1.434-1.693-4.857-4.476-7.932-4.732c-0.01-0.001-0.018-0.007-0.028-0.008 c-1.214,0.012-3.895,0.233-4.121,1.965c-0.46,3.517,4.228,5.659,4.928,5.959c4.774,0.491,8.469,3.003,8.625,3.112 c0.455,0.313,0.568,0.936,0.254,1.39c-0.193,0.281-0.506,0.432-0.824,0.432c-0.195,0-0.393-0.057-0.566-0.176 c-0.035-0.024-3.429-2.32-7.664-2.764c-0.611,0.222-2.702,1.111-3.387,3.112c-1.074,3.144,2.924,5.128,3.676,5.469 c5.304,0.091,7.757,2.899,7.861,3.021c0.355,0.423,0.301,1.054-0.121,1.409c-0.188,0.158-0.416,0.235-0.645,0.235 c-0.285,0-0.566-0.121-0.766-0.355c-0.076-0.089-2.061-2.307-6.53-2.323c-0.327,0.042-2.196,0.387-2.292,2.708 c-0.102,2.435,4.959,5.188,6.74,5.96c0.346,0.149,0.578,0.482,0.6,0.86l0.441,7.725c1.852-2.116,5.055-6.936,6.896-16.331 C270.478,56.194,265.623,41.664,257.855,39.722z M255.111,96.505h-34.46l-1.745,37.446c-0.014,0.303-0.164,0.582-0.408,0.761 c-0.174,0.126-0.381,0.192-0.59,0.192c-0.088,0-0.174-0.012-0.26-0.034c-0.213-0.057-8.565-2.307-19.684-5.176 c0.045,0.165,0.064,0.337,0.018,0.514c-5.475,20.717,0.038,47.072,1.066,51.611c23.162,0.81,50.283-0.851,56.38-12.244 c8.598-16.068,4.66-62.18,3.418-74.531C257.854,95.942,256.552,96.505,255.111,96.505z M55.411,97.742 c-0.298-0.465-0.914-0.603-1.381-0.305c-0.003,0.002-0.004,0.005-0.007,0.007c-0.2-0.055-0.415-0.064-0.622,0.018 c-5.56,2.178-11.085-0.418-14.405-3.576c-3.615-3.438-5.185-7.942-3.998-11.474c0.726-2.161,1.987-3.685,3.749-4.527 c3.805-1.822,8.79-0.013,8.84,0.005c0.139,0.051,0.28,0.065,0.418,0.055c0.09,0.026,0.178,0.069,0.269,0.069 c0.354,0,0.696-0.188,0.878-0.52c0.615-1.122,14.536-26.622,15.62-38.247c6.27,1.952,33.826,10.281,44.34,9.253 c3.062-0.299,4.858-1.311,5.341-3.009c0.276-0.976,0.053-2.053-0.463-3.138c3.592,2.309,7.908,4.673,11.977,5.864l2.644,24.658 c1.085,10.12-1.836,20.058-8.226,27.981c-6.389,7.923-15.48,12.884-25.601,13.969l-3.158,0.339 C77.142,116.723,63.255,110.044,55.411,97.742z M99.567,55.876c0.256,0.487,0.861,0.675,1.349,0.42 c0.224-0.116,5.54-2.807,11.137,1.771c0.186,0.151,0.409,0.226,0.632,0.226c0.29,0,0.577-0.125,0.775-0.367 c0.35-0.427,0.286-1.057-0.142-1.407c-6.652-5.44-13.067-2.133-13.337-1.99C99.494,54.786,99.31,55.389,99.567,55.876z M110.293,71.735c-0.371-5.02-2.796-8.933-5.417-8.74s-4.445,4.42-4.074,9.441c0.371,5.021,2.796,8.933,5.417,8.74 S110.664,76.755,110.293,71.735z M93.73,80.173c1.508,0.532,2.416,1.174,2.7,1.908c0.276,0.716,0.045,1.743-0.708,3.142 c-0.262,0.486-0.079,1.093,0.407,1.354c0.15,0.081,0.312,0.119,0.473,0.119c0.356,0,0.701-0.19,0.882-0.526 c0.667-1.239,1.478-3.087,0.812-4.81c-0.511-1.322-1.786-2.328-3.899-3.074c-0.524-0.182-1.092,0.091-1.276,0.61 C92.936,79.417,93.21,79.989,93.73,80.173z M78.307,59.165c0.521,0.171,1.089-0.116,1.26-0.639c0.172-0.523-0.11-1.087-0.633-1.261 c-0.291-0.096-7.17-2.286-12.819,4.188c-0.362,0.416-0.319,1.048,0.097,1.411c0.189,0.165,0.424,0.246,0.657,0.246 c0.278,0,0.556-0.116,0.754-0.343C72.374,57.324,78.066,59.089,78.307,59.165z M76.3,83.386c2.621-0.194,4.445-4.42,4.074-9.441 s-2.796-8.933-5.417-8.74c-2.621,0.194-4.445,4.421-4.075,9.441C71.253,79.666,73.679,83.579,76.3,83.386z M93.013,104.047 c1.069-0.001,2.171-0.087,3.293-0.274c11.049-1.842,13.533-10.881,13.532-13.902c0-1.797-0.702-2.291-1.291-2.389 c-0.853-0.143-1.889,0.266-3.457,0.886c-1.84,0.728-4.361,1.724-7.456,2.11c-4.849,0.607-9.359,0.235-12.985-0.063 c-4.05-0.332-6.765-0.542-8.2,0.672c-0.02,0.012-0.036,0.028-0.055,0.042c-0.04,0.035-0.089,0.059-0.127,0.097 c-0.468,0.468-1.087,1.577,0.029,3.747C78.347,98.959,84.813,104.047,93.013,104.047z" fill="#f4d1c5"/></g><g id="change5_1"><path d="M114.292,548.985c0.694,1.914,0.544,3.43-0.46,4.637c-4.1,4.932-21.804,5.213-48.565,0.768 c-15.008-2.494-30.829-8.638-34.251-10.011c0.352-1.718,1.502-7.333,3.159-15.379l26.157,5.693c0.07,0.016,0.142,0.023,0.212,0.023 c0.19,0,0.379-0.055,0.542-0.16c0.224-0.143,0.381-0.371,0.437-0.629c0.01-0.045,0.996-4.479,3.887-6.727 c3.628-2.816,7.664-2.954,8.262-2.955c0.57,0.178,2.826,0.896,6.001,2.055c-3.662,0.702-8.586,2.679-11.419,8.153 c-0.254,0.49-0.062,1.094,0.428,1.348c0.147,0.076,0.305,0.111,0.459,0.111c0.362,0,0.711-0.197,0.889-0.541 c3.883-7.5,12.398-7.511,13.925-7.442c0.766,0.303,1.558,0.625,2.368,0.961c-3.23,0.698-7.922,2.713-10.896,8.461 c-0.254,0.49-0.062,1.094,0.428,1.348c0.147,0.076,0.305,0.111,0.459,0.111c0.362,0,0.711-0.197,0.889-0.541 c4.184-8.082,12.232-7.75,12.566-7.734c0.112,0.014,0.21-0.008,0.308-0.029c1.403,0.627,2.829,1.295,4.257,1.999 c-3.601,0.469-8.986,2.186-12.015,8.04c-0.254,0.49-0.062,1.094,0.428,1.348c0.147,0.076,0.305,0.111,0.459,0.111 c0.362,0,0.711-0.197,0.889-0.541c4.17-8.053,13.289-7.133,13.673-7.086c0.056,0.006,0.108-0.011,0.163-0.014 C105.451,538.441,112.296,543.481,114.292,548.985z M266.088,544.537c-2.452-5.318-9.694-9.763-17.532-13.193 c-0.047,0.007-0.089,0.027-0.138,0.027c-0.023,0-0.062-0.002-0.166-0.002c-1.23,0-9.602,0.297-12.887,8.217 c-0.16,0.385-0.531,0.617-0.924,0.617c-0.129,0-0.258-0.023-0.383-0.076c-0.51-0.211-0.752-0.797-0.541-1.307 c2.528-6.094,7.747-8.258,11.295-9.026c-1.49-0.584-2.976-1.132-4.434-1.641c-0.09,0.03-0.18,0.063-0.279,0.066 c-0.342,0.01-8.383,0.357-11.871,8.764c-0.16,0.385-0.531,0.617-0.924,0.617c-0.129,0-0.258-0.023-0.383-0.076 c-0.51-0.213-0.752-0.797-0.541-1.307c2.482-5.979,6.994-8.38,10.155-9.347c-0.836-0.267-1.654-0.521-2.443-0.759 c-1.511,0.065-10.014,0.775-13.254,8.586c-0.16,0.385-0.531,0.617-0.924,0.617c-0.129,0-0.258-0.023-0.383-0.076 c-0.51-0.211-0.752-0.797-0.541-1.307c2.363-5.694,7.104-8.078,10.695-9.085c-3.264-0.889-5.575-1.415-6.157-1.544 c-0.603,0.056-4.603,0.529-7.981,3.642c-2.693,2.48-3.301,6.982-3.307,7.027c-0.035,0.268-0.176,0.51-0.391,0.672 c-0.176,0.131-0.387,0.201-0.602,0.201c-0.051,0-0.102-0.004-0.152-0.012l-30.203-4.644l2.149,17.033 c1.057,0.325,18.068,5.491,34.649,6.825c27.041,2.172,44.658,0.408,48.328-4.852C266.918,547.91,266.941,546.387,266.088,544.537z M94.257,95.646c6.601-0.637,8.592-3.049,9.191-4.535c-1.575,0.549-3.411,1.083-5.566,1.352c-5.052,0.635-9.679,0.252-13.397-0.055 c-1.57-0.129-3.098-0.255-4.32-0.255c-0.278,0-0.535,0.008-0.778,0.023C82.253,93.697,88.089,96.237,94.257,95.646z" fill="#fff"/></g></svg>