<?xml version="1.0" encoding="UTF-8"?><svg xmlns="http://www.w3.org/2000/svg" xmlns:xlink="http://www.w3.org/1999/xlink" height="503.9" preserveAspectRatio="xMidYMid meet" version="1.1" viewBox="0.0 -0.5 272.3 503.9" width="272.3" zoomAndPan="magnify">
 <defs>
  <clipPath id="clip1">
   <path d="m0 227h272.26v276.43h-272.26z"/>
  </clipPath>
 </defs>
 <g id="surface1">
  <g clip-path="url(#clip1)" id="change1_1">
   <path d="m267.38 398.76c-0.02-0.01-0.13-0.59-0.1-0.73 0.01-0.08 0.21-0.11 0.25-0.06 0.1 0.14 0.23 0.39 0.22 0.52 0 0.11-0.34 0.28-0.37 0.27zm-0.86-4.44s-0.07-0.38-0.16-0.91c0.08-0.36 0.16-0.72 0.23-1.08 0 0.09 0.01 0.18 0.01 0.27 0.02 0.59-0.08 1.72-0.08 1.72zm-2.72 13.17c-0.01 0.09-0.39 0.1-0.43 0.06-0.06-0.05-0.1-0.58-0.04-0.66 0.05-0.09 0.28-0.06 0.35 0.04 0.09 0.12 0.15 0.42 0.12 0.56zm-112.36 91.74c-0.28 0.1-0.69 0.23-1.04 0.33-0.35 0.08-0.63 0.15-0.63 0.15s0.22-0.11 0.55-0.28c0.08-0.04 0.19-0.1 0.29-0.16 0.34-0.03 0.68-0.08 1.02-0.11-0.06 0.02-0.13 0.04-0.19 0.07zm-4.84 2.52c-0.1 0.14-0.29 0.34-0.42 0.37-0.11 0.03-0.38-0.24-0.37-0.28 0-0.02 0.52-0.29 0.66-0.3 0.08-0.02 0.17 0.16 0.13 0.21zm-9.7-0.92c-0.1 0.13-0.36 0.28-0.5 0.29-0.1 0.01-0.21-0.34-0.19-0.39 0.03-0.07 0.52-0.26 0.62-0.24 0.1 0.03 0.14 0.24 0.07 0.34zm-121.04-80.28c-0.367-0.48-0.964-1.45-0.964-1.45s0.269 0.27 0.644 0.63c0.129 0.31 0.258 0.61 0.391 0.91-0.024-0.03-0.047-0.07-0.071-0.09zm-3.886-3.85c-0.164-0.06-0.403-0.18-0.473-0.29-0.062-0.1 0.121-0.43 0.16-0.44 0.02-0.01 0.43 0.41 0.485 0.54 0.031 0.08-0.11 0.22-0.172 0.19zm-2.0198-9.54c-0.1484-0.05-0.3789-0.25-0.4414-0.38-0.043-0.08 0.2539-0.3 0.3164-0.3 0.0742 0.01 0.4218 0.42 0.4298 0.52s-0.188 0.2-0.3048 0.16zm38.332-142.16s-0.109 0.21-0.273 0.54c-0.043 0.09-0.098 0.2-0.145 0.3-0.261 0.24-0.515 0.48-0.777 0.72 0.047-0.06 0.094-0.13 0.133-0.19 0.304-0.53 1.062-1.37 1.062-1.37zm1.43-4.1c0.07-0.09 0.445-0.03 0.465 0.01 0.008 0.01-0.246 0.54-0.344 0.64-0.062 0.06-0.238-0.03-0.238-0.1 0-0.18 0.035-0.44 0.117-0.55zm8.457-5.01c0.07-0.07 0.375 0.15 0.391 0.2 0.019 0.07-0.262 0.53-0.356 0.57-0.094 0.03-0.262-0.12-0.258-0.24 0-0.15 0.117-0.44 0.223-0.53zm144.62-7.02c0.57 0.17 1.62 0.61 1.62 0.61s-0.37-0.05-0.88-0.13c-0.28-0.17-0.56-0.34-0.85-0.51 0.04 0.01 0.07 0.02 0.11 0.03zm5.4 0.84c0.17-0.05 0.43-0.08 0.56-0.03 0.1 0.04 0.15 0.42 0.12 0.44-0.01 0.02-0.59-0.08-0.71-0.15-0.07-0.04-0.04-0.24 0.03-0.26zm7.21 6.56c0.15-0.04 0.46-0.01 0.58 0.05 0.09 0.05-0.02 0.4-0.08 0.43-0.06 0.04-0.58-0.09-0.65-0.16-0.06-0.08 0.03-0.28 0.15-0.32zm55.1 109.53c-0.42-0.14-1.11-0.65-1.12 0.18 0 0.07-0.07 0.11-0.16 0.14 0-0.2 0.01-0.4 0.01-0.6v-0.08c0.2-0.03 0.41-0.06 0.66-0.09 2.34-0.27 2.21-0.3 1.88-3.29-0.08-0.74-0.41-1.53-0.45-2.25-0.05-1.27 1.07-2.74 0.92-4.02-0.13-1.19-0.22-2.45-0.27-3.72s-0.18-2.53-0.26-3.76c-0.08-1.22-0.17-2.41-0.28-3.49-0.13-1.07-0.34-2.04-0.55-2.85-0.58-1.97-0.47-4.19-1.09-6.29-0.43-1.57-1.04-3.15-1.38-4.68-0.32-1.18-0.18-2.3-0.52-3.49l-0.85-2.95c-0.32-0.97-0.68-1.93-1.02-2.89-0.69-1.92-1.36-3.85-2.16-5.69-0.32-0.79-0.44-1.57-0.69-2.36l-0.63-1.94c-0.24-0.64-0.5-1.28-0.78-1.92-0.58-1.3-1.35-2.59-1.91-3.88-0.23-0.54-0.06-1.07-0.31-1.61-1.26-2.66-2.53-5.31-4.08-7.82-0.23-0.4-1.08-0.76-1.42-1.18-0.31-0.36-0.56-0.82-0.81-1.34-0.25-0.51-0.51-1.07-0.78-1.66-0.56-1.18-1.19-2.45-2.17-3.52-0.15-0.17-0.4-0.46-0.35-0.53 0.55-0.63-0.32-1.13-0.93-1.73-0.8-0.79-1.48-1.64-2.11-2.48-1.11-1.56-2.27-3-3.49-4.47-0.45-0.53-1.58-1.06-1.9-1.61-0.43-0.67-0.28-1.19-1.75-2.69-0.16-0.16-0.11-0.39-0.21-0.58-0.09-0.18-0.26-0.46-0.42-0.5-1.19-0.29-1.23-0.86-1.37-1.48-0.35-1.39-1.63-2.19-3.64-2.36-0.13-0.01-0.32-0.09-0.49-0.18-0.17-0.08-0.3-0.17-0.3-0.17s0.42-0.04 0.43-0.07c0.05-0.08-0.24-1.29-0.78-1.74-0.86-0.68-1.47-1.4-2.24-2.08-0.82-0.72-1.37-1.71-3.12-1.9-1.08-0.09-1.26-0.64-1.17-1.27 0.14-1-1.85-0.86-1.87-0.9 0 0 1.17-0.82 1.17-0.93 0-0.06-1.01-1.02-1.25-1.03-0.17 0-0.91 0.77-0.95 0.75 0 0 0.32-0.74 0.42-1.09 0.16-0.58-1.32-0.22-1.69-0.33-0.15-0.06-1.68-0.78-1.76-0.88 0 0 0.5-0.81 0.49-0.86-0.05-0.27-1-0.95-1.46-1.32-0.57-0.45-1.09-1.14-1.81-1.26-1.64-0.24-1.67-1.57-1.8-1.65 0 0-0.29 0.18-0.36 0.18-0.33-0.03-1.35-1.11-1.71-1.14-0.27-0.02-1.72 1.01-1.88 0.92-0.05-0.03-0.25-1.06-0.23-1.44 0.05-0.84-0.25-1.55-1.38-2.09-0.81-0.38-1.6-0.77-2.34-1.19-1.12-0.65-1.16-1.87-3.13-2.01-0.13-0.01-0.13-0.32-0.26-0.46-0.6-0.72-3.68-1.04-3.88-1.2-0.06-0.05 0.36-1.49-1.44-1.3-0.09 0.01-0.18-0.12-0.28-0.18-1.27-0.71-2.44-1.52-3.85-2.09-0.89-0.33-2.82-0.28-3.04-0.53-0.04-0.05 0.2-0.65-0.04-0.78-1.05-0.53-2.19-1.02-3.34-1.41-0.73-0.26-1.52-0.47-2.2-0.76-0.88-0.37-1.66-0.83-2.54-1.19-0.85-0.36-2.05-0.24-2.66-0.88-0.73-0.72-1.93-0.37-2.71 0.72-0.26 0.36-0.97 0.86-0.18 1.12 0.06 0.01 0.08 0.09 0.09 0.17-0.22-0.07-0.44-0.14-0.65-0.21 0.04-0.2 0.08-0.41 0.12-0.64 0.24-1.16 0.35-1.71 0.03-2.06-0.33-0.35-1.07-0.53-2.55-0.8-0.73-0.15-1.59-0.07-2.29-0.25-1.24-0.3-2.25-1.95-3.52-2.16-4.71-0.99-10.22-2.84-13.59-2.96-2.06-0.04-4.15-0.81-6.33-0.9-1.63-0.05-3.33 0.07-4.88-0.06-1.23-0.13-2.26-0.56-3.49-0.6-4.1-0.17-8.2 0.1-12.22 0.34-0.85 0.08-1.63-0.03-2.45-0.02-1.37 0.03-2.73 0.02-4.11 0.15-1.42 0.19-2.88 0.55-4.28 0.72-0.59 0.07-1.04-0.29-1.64-0.22-1.46 0.14-2.9 0.44-4.36 0.68-1.44 0.27-2.9 0.47-4.32 0.87-0.45 0.11-1.05 0.82-1.55 1.04-0.88 0.37-2.05 0.46-3.35 0.6-1.29 0.15-2.69 0.44-3.995 1.07-0.207 0.1-0.559 0.25-0.602 0.19-0.441-0.71-1.188-0.06-1.953 0.33-1 0.5-1.996 0.95-2.981 1.31-1.785 0.7-3.582 1.19-5.3 2.02-0.633 0.29-1.465 1.24-2.086 1.39-0.766 0.21-1.246-0.14-3.106 0.84-0.199 0.11-0.398 0-0.613 0.04-0.195 0.04-0.508 0.13-0.59 0.27-0.617 1.07-1.18 0.95-1.805 0.92-1.445-0.09-2.613 0.83-3.332 2.77-0.043 0.11-0.179 0.28-0.308 0.42-0.125 0.14-0.246 0.24-0.246 0.24s0.074-0.42 0.05-0.44c-0.058-0.06-1.293-0.12-1.875 0.28-0.906 0.62-1.8 0.94-2.668 1.48-0.918 0.6-2.019 0.86-2.687 2.5-0.402 1-1 1-1.574 0.72-0.942-0.45-1.36 1.52-1.407 1.53 0 0-0.453-1.36-0.554-1.39-0.059-0.02-1.258 0.7-1.328 0.92-0.055 0.17 0.476 1.1 0.449 1.14 0 0-0.617-0.53-0.922-0.72-0.512-0.31-0.574 1.23-0.809 1.53-0.097 0.12-1.253 1.35-1.375 1.39 0 0-0.636-0.71-0.679-0.71-0.27-0.04-1.188 0.7-1.668 1.04-0.59 0.43-1.383 0.75-1.707 1.4-0.723 1.47-2.028 1.09-2.129 1.2-0.008 0 0.082 0.33 0.058 0.4-0.117 0.3-1.425 1-1.55 1.34-0.094 0.26 0.484 1.94 0.355 2.08-0.043 0.04-1.078-0.06-1.453-0.2-0.789-0.29-1.586-0.23-2.43 0.68-0.586 0.68-1.175 1.34-1.777 1.94-0.922 0.92-2.133 0.57-2.863 2.38-0.047 0.13-0.336 0.04-0.508 0.11-0.86 0.38-2 3.3-2.231 3.42-0.066 0.04-1.324-0.78-1.695 0.96-0.019 0.1-0.172 0.14-0.254 0.22-1.035 1.03-2.109 1.94-3.074 3.12-0.598 0.73-1.141 2.56-1.422 2.72-0.058 0.03-0.562-0.38-0.754-0.17-0.797 0.84-1.543 1.84-2.293 2.79-0.465 0.62-0.949 1.27-1.394 1.86-0.598 0.75-1.254 1.36-1.84 2.12-0.567 0.72-0.863 1.86-1.66 2.25-0.914 0.47-0.895 1.75-0.086 2.82 0.269 0.35 0.547 1.18 1.015 0.49 0.036-0.05 0.114-0.05 0.204-0.02-0.137 0.18-0.27 0.36-0.403 0.55-0.176-0.09-0.359-0.19-0.566-0.3-2.067-1.14-1.981-1.04-3.489 1.56-0.386 0.63-0.55 1.49-0.914 2.11-0.644 1.1-2.453 1.62-3.093 2.74-1.2 2.08-2.559 4.34-3.907 6.4-1.254 2.12-2.363 4.11-2.968 5.67-0.7 1.93-1.93 3.75-2.739 5.77-0.601 1.51-0.921 3.19-1.515 4.64-0.4417 1.15-1.2776 1.95-1.6565 3.12-0.6406 1.95-1.2617 3.91-1.8516 5.86-0.5039 1.98-1.0039 3.95-1.5 5.9-0.2304 0.82-0.5273 1.53-0.7734 2.32-0.3789 1.31-0.7813 2.61-1.082 3.97-0.336 1.39-0.3594 2.9-0.6328 4.28-0.1094 0.58-0.586 0.91-0.7032 1.49-0.1367 0.72-0.2968 1.44-0.4101 2.17l-0.2969 2.18c-0.19141 1.46-0.36719 2.92-0.52344 4.38-0.03906 0.46 0.47264 1.25 0.51954 1.79 0.0937 0.95-0.1758 2.09-0.4336 3.37-0.12891 0.63-0.25391 1.31-0.33203 2-0.04297 0.69-0.03125 1.4 0.07422 2.12 0.03515 0.23 0.07812 0.61 0 0.63-0.80469 0.2-0.41406 1.1-0.27344 1.95 0.19141 1.11 0.17969 2.19 0.26172 3.24 0.10547 1.91 0.10156 3.76 0.23828 5.66 0.02734 0.69 0.71095 1.78 0.66405 2.41-0.043 0.8-0.47655 1.13-0.1719 3.21 0.0313 0.22-0.1445 0.38-0.1757 0.59-0.0274 0.2-0.05864 0.53 0.0429 0.65 0.7774 0.93 0.5235 1.42 0.293 2-0.52344 1.34 0.0351 2.73 1.5625 4.04 0.0976 0.08 0.207 0.26 0.293 0.43 0.0859 0.17 0.1406 0.31 0.1406 0.31s-0.3672-0.2-0.3984-0.19c-0.0743 0.04-0.5704 1.19-0.3516 1.87 0.3164 1.05 0.375 2 0.5976 2.99 0.254 1.06 0.0821 2.2 1.4336 3.36 0.8399 0.7 0.6485 1.26 0.2149 1.71-0.7031 0.74 1 1.78 0.9883 1.83 0 0-1.4336-0.02-1.4922 0.07-0.0391 0.05 0.2226 1.42 0.4101 1.57 0.1367 0.1 1.1875-0.1 1.211-0.06 0 0-0.6993 0.41-0.9844 0.64-0.4844 0.39 0.9609 0.94 1.1875 1.26 0.0898 0.13 0.918 1.61 0.918 1.74 0 0-0.875 0.37-0.8946 0.41-0.125 0.24 0.25 1.35 0.4063 1.92 0.2031 0.7 0.207 1.57 0.7422 2.08 1.1836 1.15 0.4336 2.25 0.4922 2.38 0.0039 0.01 0.3437 0.04 0.3945 0.08 0.25 0.21 0.4531 1.68 0.7305 1.92 0.207 0.17 1.9763 0.18 2.0583 0.35 0.028 0.05-0.422 1-0.664 1.31-0.5232 0.64-0.699 1.4-0.094 2.49 0.434 0.78 0.848 1.56 1.207 2.33 0.532 1.19-0.171 2.21 1.352 3.47 0.106 0.08-0.074 0.33-0.062 0.52 0.062 0.94 2.398 2.99 2.441 3.25 0.016 0.07-1.164 0.99 0.406 1.89 0.082 0.05 0.078 0.2 0.125 0.31 0.613 1.32 1.11 2.65 1.887 3.96 0.519 0.78 2.117 1.87 2.144 2.2 0.008 0.07-0.539 0.41-0.414 0.66 0.532 1.04 1.192 2.09 1.856 3.11 0.437 0.63 0.957 1.27 1.34 1.9 0.5 0.82 0.851 1.64 1.359 2.45 0.473 0.79 1.484 1.42 1.621 2.29 0.156 1 1.344 1.43 2.613 1.01 0.422-0.13 1.293-0.12 0.805-0.8-0.035-0.05-0.012-0.11 0.031-0.19 0.133 0.19 0.266 0.37 0.399 0.56-0.149 0.14-0.301 0.28-0.477 0.44-1.73 1.56-1.676 1.56 0.336 3.8 0.508 0.55 1.242 1 1.703 1.55 0.825 0.97 0.66 2.9 1.555 3.83 3.211 3.57 6.527 8.35 9.168 10.44 0.809 0.64 1.527 1.41 2.246 2.2 0.715 0.8 1.441 1.61 2.301 2.29 1.265 1.01 2.699 1.94 3.867 2.98 0.938 0.8 1.488 1.77 2.449 2.54l2.418 1.9c0.824 0.61 1.68 1.17 2.516 1.75 1.683 1.16 3.351 2.33 5.082 3.36 0.719 0.45 1.269 1.02 1.933 1.51 0.555 0.4 1.094 0.82 1.657 1.21 0.57 0.37 1.152 0.74 1.754 1.09 1.234 0.72 2.613 1.32 3.82 2.03 0.523 0.29 0.684 0.83 1.203 1.12 1.289 0.71 2.582 1.41 3.883 2.1 1.305 0.68 2.668 1.24 4.012 1.85 0.421 0.18 1.324-0.02 1.839 0.12 1.825 0.5 4.047 2.45 6.887 3.07 0.219 0.05 0.602 0.13 0.594 0.2-0.067 0.83 0.926 0.73 1.777 0.86 1.117 0.16 2.168 0.45 3.168 0.76 1.821 0.59 3.617 1.07 5.466 1.54 0.67 0.16 1.89-0.07 2.49 0.17 0.74 0.28 0.93 0.8 3 1.13 0.23 0.03 0.32 0.25 0.52 0.34 0.18 0.09 0.48 0.22 0.63 0.15 1.13-0.47 1.51-0.03 1.98 0.38 1.12 0.92 2.62 0.79 4.34-0.27 0.11-0.06 0.32-0.11 0.5-0.14 0.18-0.04 0.34-0.05 0.34-0.05s-0.31 0.29-0.3 0.32c0.01 0.09 0.96 0.89 1.66 0.93 1.1 0.06 2.02 0.25 3.03 0.35 1.1 0.08 2.13 0.55 3.65-0.35 0.92-0.53 1.4-0.22 1.69 0.34 0.49 0.89 2-0.43 2.05-0.4 0 0-0.45 1.36-0.39 1.44 0.04 0.05 1.43 0.21 1.62 0.07 0.14-0.1 0.27-1.16 0.31-1.17 0 0 0.19 0.79 0.32 1.13 0.22 0.56 1.18-0.62 1.56-0.72 0.15-0.02 1.81-0.39 1.93-0.35 0 0 0.09 0.95 0.12 0.98 0.2 0.19 1.37 0.15 1.96 0.17 0.73 0.02 1.56 0.25 2.21-0.07 1.45-0.71 2.28 0.27 2.42 0.27 0.01 0 0.13-0.32 0.19-0.36 0.28-0.17 1.74 0.06 2.05-0.14 0.23-0.14 0.77-1.83 0.96-1.86 0.05-0.01 0.82 0.69 1.04 1.03 0.46 0.7 1.14 1.16 2.36 0.88 0.87-0.19 1.74-0.36 2.58-0.48 1.29-0.2 2.05 0.84 3.72-0.21 0.11-0.08 0.29 0.17 0.48 0.21 0.91 0.21 3.56-1.45 3.83-1.41 0.07 0.02 0.59 1.43 1.93 0.25 0.07-0.06 0.22-0.02 0.33-0.03 1.45-0.21 2.86-0.31 4.33-0.69 0.92-0.23 2.45-1.37 2.77-1.33 0.06 0.01 0.22 0.63 0.5 0.58 1.14-0.21 2.34-0.57 3.51-0.89 0.74-0.22 1.51-0.46 2.22-0.67 0.93-0.25 1.82-0.36 2.74-0.62 0.89-0.25 1.8-0.99 2.67-0.84 1.03 0.19 1.76-0.88 1.74-2.21-0.01-0.45 0.26-1.28-0.53-1-0.06 0.02-0.12-0.02-0.18-0.1 0.22-0.07 0.44-0.14 0.65-0.22 0.09 0.18 0.18 0.38 0.28 0.59 1 2.13 0.99 2 3.74 0.79 0.69-0.29 1.34-0.86 1.99-1.16 1.17-0.51 2.93 0.13 4.11-0.4 1.11-0.48 2.26-0.98 3.43-1.48 1.17-0.49 2.35-0.96 3.5-1.41 2.27-0.95 4.33-1.95 5.73-2.85 1.71-1.13 3.76-1.91 5.6-3.07 1.39-0.85 2.62-2.05 3.95-2.88 1.03-0.67 2.18-0.84 3.17-1.57 1.66-1.2 3.31-2.42 4.93-3.67 1.56-1.31 3.12-2.62 4.67-3.91 0.64-0.55 1.32-0.94 1.97-1.44 1.08-0.84 2.16-1.66 3.21-2.59 1.04-0.97 1.98-2.15 3-3.11 0.43-0.41 1.01-0.4 1.45-0.8 1.09-0.98 2.07-2.08 3.1-3.13 0.99-1.09 2.05-2.12 2.96-3.28 0.29-0.36 0.35-1.28 0.62-1.75 0.49-0.82 1.38-1.58 2.34-2.47 0.94-0.89 1.91-1.94 2.59-3.22 0.1-0.2 0.29-0.54 0.37-0.51 0.77 0.31 0.99-0.65 1.38-1.41 0.48-1.02 1.04-1.95 1.62-2.83 1.05-1.6 2.17-3.08 3.09-4.75 0.34-0.61 0.45-1.86 0.86-2.35 0.5-0.62 1.12-0.61 2.01-2.51 0.1-0.2 0.33-0.23 0.48-0.39 0.13-0.15 0.33-0.4 0.32-0.56-0.13-1.23 0.39-1.47 0.92-1.8 0.61-0.39 1.02-0.94 1.21-1.64 0.18-0.71 0.12-1.58-0.14-2.56-0.03-0.12-0.02-0.34 0-0.52 0.02-0.19 0.06-0.34 0.06-0.34s0.18 0.38 0.21 0.39c0.09 0.01 1.13-0.66 1.36-1.33 0.37-1.04 0.93-1.81 1.29-2.76 0.39-1.03 1.14-1.88 0.72-3.6-0.26-1.05 0.23-1.39 0.86-1.5 1.03-0.18 0.19-2.04 0.24-2.07 0 0 1.16 0.84 1.26 0.81 0.06-0.02 0.61-1.31 0.54-1.53-0.06-0.17-1.03-0.61-1.03-0.66 0 0 0.81 0.07 1.17 0.04 0.6-0.04-0.25-1.32-0.24-1.7 0.01-0.16 0.23-1.83 0.3-1.94 0 0 0.93 0.21 0.97 0.19 0.24-0.14 0.55-1.27 0.74-1.83 0.23-0.69 0.69-1.41 0.57-2.13-0.27-1.61 1-2.07 1.04-2.21 0-0.01-0.27-0.22-0.29-0.3-0.08-0.31 0.57-1.64 0.47-1.99-0.07-0.27-1.52-1.29-1.5-1.48 0.01-0.06 0.91-0.58 1.3-0.69 0.81-0.22 1.41-0.74 1.57-1.96 0.1-0.89 0.18-1.78 0.32-2.62 0.21-1.28 1.4-1.7 0.93-3.6-0.04-0.13 0.25-0.23 0.36-0.39 0.49-0.8-0.31-3.84-0.19-4.07 0.03-0.07 1.53-0.14 0.81-1.78-0.04-0.08 0.06-0.2 0.08-0.32 0.32-1.42 0.58-2.81 0.69-4.32 0.05-0.94-0.59-2.75-0.41-3.04 0.03-0.05 0.68-0.02 0.72-0.29 0.16-1.16 0.17-2.4 0.21-3.61 0.03-0.78-0.01-1.59 0.06-2.33 0.1-0.95 0.26-1.83 0.29-2.78 0.02-0.92-0.41-2.02 0-2.8 0.47-0.92-0.24-1.94-1.51-2.34" fill="#50529e"/>
  </g>
  <g id="change2_1"><path d="m130.11 229.11c-0.56 0.13-1.65 0.26-1.65 0.26s0.36-0.14 0.85-0.31h1.07c-0.09 0.01-0.19 0.03-0.27 0.05zm-4.86 1.84c-0.11 0.12-0.3 0.27-0.43 0.29-0.1 0.02-0.34-0.24-0.33-0.27 0.01-0.02 0.52-0.22 0.65-0.22 0.08-0.01 0.16 0.15 0.11 0.2zm-9.19-2.25c-0.1-0.02-0.27-0.2-0.3-0.36-0.03-0.09 0.26-0.41 0.31-0.41s0.26 0.39 0.24 0.5c-0.01 0.11-0.17 0.29-0.25 0.27zm43.85-32.41c0-1.17 0.39-2.15 0.39-3.31v-0.72l-0.01-0.37-0.02-0.53c-0.02-0.36-0.05-0.71-0.12-1.06-0.04-0.35-0.12-0.7-0.22-1.04-0.36-1.38-1.02-2.67-1.89-3.78-1.73-2.21-4.37-3.66-7.11-3.95-0.54-0.06-1.05-0.11-1.56-0.16-0.38-0.04-0.75-0.09-1.14-0.11-1.28-0.07-2.56-0.16-3.87-0.16-0.83 0-1.68 0.06-2.52 0.1-0.53 0.03-1.04 0.05-1.55 0.05-0.56-0.01-0.94-0.37-1.5-0.38-2.69-0.06-5.38-0.08-8.08-0.04h-0.2c-0.43 0.01-1.12 0.5-1.62 0.58-0.89 0.14-1.99-0.02-3.21-0.16-0.3-0.03-0.61-0.06-0.93-0.1l-0.48-0.03c-0.18-0.01-0.27-0.03-0.55-0.02-0.97-0.01-1.98 0.18-2.91 0.57-0.29 0.12-0.77 0.36-0.82 0.3-0.56-0.55-1.64 0.34-2.5 1.16-1.15 1.07-2.1 2.25-2.8 3.53-0.63 1.16-1.05 2.42-1.24 3.7-0.05 0.32-0.08 0.65-0.09 0.97-0.01 0.33-0.02 0.66-0.01 0.85 0.01 0.44 0.02 0.89 0.04 1.34 0.02 0.64 0.52 1.71 0.45 2.31-0.09 0.74-0.49 1.03-0.36 3.01 0.01 0.21-0.16 0.34-0.19 0.55-0.04 0.18-0.09 0.48-0.01 0.6 0.63 0.95 0.33 1.39 0.08 1.91-0.61 1.2-0.27 2.54 0.92 3.98 0.14 0.17 0.29 0.76 0.29 0.76s-0.3-0.25-0.32-0.24c-0.07 0.03-0.62 1.04-0.55 1.7 0.12 1.03 0.02 1.92 0.07 2.88 0.04 1.04-0.25 2.06 0.7 3.39 0.58 0.82 0.31 1.31-0.15 1.64-0.75 0.53 0.51 1.86 0.49 1.9 0 0-1.22-0.32-1.29-0.25-0.04 0.04-0.09 1.35 0.05 1.53 0.09 0.12 1.03 0.18 1.04 0.22 0 0-0.68 0.22-0.97 0.36-0.47 0.24 0.63 1.09 0.74 1.44 0.05 0.14 0.39 1.7 0.37 1.83 0 0-0.83 0.11-0.86 0.14-0.16 0.2-0.11 1.3-0.11 1.87-0.01 0.57-0.03 1.18-0.05 1.78 0 0.63 0.01 1.26 0.18 1.69 0.44 0.96 0.68 1.55 0.78 2.06 0.07 0.26 0.22 0.51 0.28 0.64 0.07 0.13 0.1 0.22 0.14 0.24 0.01 0 0.33-0.14 0.42-0.14 0.2 0 0.67 0.25 1.3 0.38 0.63 0.12 1.38 0.08 1.65 0.01 0.2-0.06 0.65-0.46 1-0.84 0.36-0.39 0.63-0.76 0.74-0.77 0.01-0.01 0.32 0.15 0.5 0.35 0.21 0.19 0.44 0.43 0.54 0.58 0.4 0.63 1.02 1.02 2.19 0.86 0.83-0.1 1.66-0.19 2.47-0.24 1.24-0.07 1.86 0.86 3.53 0.09 0.11-0.05 0.26 0.18 0.43 0.24 0.82 0.29 3.51-0.86 3.76-0.8 0.08 0.02 0.38 1.31 1.79 0.43 0.08-0.04 0.21 0.02 0.32 0.03 1.38 0.04 2.71 0.18 4.15 0.08 0.89-0.06 2.53-0.81 2.83-0.68 0.05 0.02 0.08 0.59 0.34 0.6 1.11 0.05 2.29-0.02 3.44-0.06 0.73-0.03 1.5-0.12 2.2-0.11 0.91 0.02 1.75 0.14 2.66 0.14 0.43 0.01 0.91-0.09 1.37-0.15 0.17-0.03 0.6-0.05 0.94-0.04 0.35 0.01 0.69 0.05 1.02 0.13 0.77 0.19 1.6 0.18 2.01-0.2 0.42-0.35 0.49-0.89 0.31-1.38-0.13-0.35-0.05-0.81-0.85-0.79-0.06 0.01-0.15-0.04-0.24-0.12h0.59c0.02 0 0.03-0.02 0.06-0.03 0.03 0.03 0.06 0.06 0.09 0.08 0.13 0.11 0.26 0.22 0.41 0.34 0.82 0.66 1.3 0.89 1.62 0.62 0.17-0.14 0.35-0.43 0.47-1 0.14-0.57 0.05-1.5 0-2.64-0.02-0.29-0.05-0.58-0.08-0.86l-0.05-0.42-0.06-0.27c-0.08-0.37-0.15-0.73-0.16-1.07-0.04-1.22 1.06-2.56 1.02-3.77-0.18-4.55 0.52-9.98 0.23-13.13-0.18-1.93 0.19-3.97 0.11-6.02-0.06-1.53-0.29-3.12-0.27-4.6" fill="#eeba4a"/></g>
  <g id="change3_1"><path d="m118.51 229.75c-0.05-0.03-0.09-0.25-0.07-0.35 0.02-0.13 0.12-0.31 0.18-0.34 0.04-0.01 0.13 0.34 0.13 0.4-0.01 0.07-0.2 0.31-0.24 0.29zm-4.3-0.83c-0.03 0.01-0.09-0.15-0.07-0.21 0.03-0.13 0.09-0.31 0.15-0.35 0.04-0.03 0.18 0.23 0.18 0.27 0 0.02-0.2 0.28-0.26 0.29zm-1.98 2.46c-0.35 0.37-0.71 0.71-0.75 0.67 0 0-0.03-0.48-0.01-0.55 0.07-0.2 0.5-0.34 0.76-0.52 0.23-0.16 0.7-0.37 0.7-0.37s-0.35 0.38-0.7 0.77zm59.66 0.11c-0.31-0.08-0.68-0.06-0.98-0.15-0.53-0.14-0.95-1-1.48-1.18-1-0.3-2.06-0.82-3.07-1.2-1.01-0.39-1.95-0.8-2.68-0.84-0.89-0.06-1.75-0.65-2.68-0.8-0.7-0.09-1.45-0.02-2.12-0.16-0.53-0.12-0.93-0.6-1.45-0.71-0.88-0.18-1.77-0.33-2.64-0.47-0.89-0.09-1.77-0.18-2.65-0.22-0.36-0.03-0.68-0.24-1.03-0.33-0.59-0.15-1.17-0.32-1.77-0.38-0.63-0.08-1.28 0.04-1.89 0-0.26-0.02-0.41-0.48-0.67-0.51-1.27-0.17-2.55-0.29-3.83-0.33-0.2 0-0.52 0.59-0.76 0.68-0.81 0.34-2.02-0.9-3.26-0.37-0.1 0.04-0.27 0.1-0.28 0.01-0.1-0.93-0.49-0.46-0.85-0.3-0.48 0.22-0.95 0.31-1.41 0.35-0.82 0.07-1.63 0.08-2.45 0.21-0.3 0.05-0.76 0.73-1.04 0.64-0.35-0.11-0.5-0.63-1.4-0.41-0.1 0.02-0.16-0.2-0.26-0.25-0.09-0.04-0.23-0.1-0.28 0.01-0.39 0.84-0.62 0.46-0.87 0.13-0.59-0.75-1.19-0.26-1.75 1.34-0.07 0.2-0.32 0.42-0.32 0.41 0 0 0.09-0.4 0.08-0.43-0.02-0.1-0.53-0.78-0.82-0.66-0.46 0.2-0.87 0.12-1.31 0.22-0.47 0.11-0.96-0.2-1.47 1.06-0.31 0.78-0.56 0.46-0.76-0.1-0.32-0.89-0.78 0.75-0.81 0.72 0 0 0.02-1.53-0.02-1.62-0.02-0.05-0.62-0.02-0.69 0.16-0.02 0.06-0.01 0.38 0 0.69s0.02 0.61 0.02 0.61-0.18-0.83-0.28-1.17c-0.16-0.57-0.42 0.83-0.56 0.98-0.06 0.07-0.73 0.58-0.78 0.55 0 0-0.16-0.99-0.17-1.03-0.11-0.18-0.61-0.05-0.86-0.01-0.31 0.03-0.69-0.12-0.93 0.28-0.53 0.89-1-0.14-1.06-0.11 0 0-0.03 0.33-0.05 0.37-0.1 0.19-0.75 0.03-0.86 0.24-0.08 0.16-0.14 1.86-0.22 1.9-0.02 0.01-0.43-0.66-0.56-0.98-0.26-0.68-0.59-1.05-1.1-0.79-0.36 0.18-0.72 0.36-1.07 0.48-0.54 0.18-0.95-0.73-1.59 0.21-0.04 0.07-0.14-0.16-0.23-0.2-0.41-0.21-1.45 1.17-1.57 1.13-0.03-0.02-0.35-1.25-0.86-0.25-0.03 0.05-0.09 0-0.14 0-0.62 0.09-1.24 0.1-1.87 0.32-0.38 0.14-1 0.98-1.15 0.9-0.03-0.02-0.13-0.52-0.24-0.5-0.5 0.07-1.02 0.25-1.52 0.4-0.32 0.1-0.65 0.26-0.96 0.32-0.41 0.09-0.8 0.08-1.2 0.18-0.39 0.09-0.78 0.52-1.17 0.35-0.22-0.11-0.42 0-0.56 0.23s-0.22 0.62-0.2 1.13c0.01 0.16-0.01 0.4 0 0.52 0.01 0.13 0.06 0.17 0.23 0.13 0.09-0.03 0.2 0.36 0.17 0.57-0.15 0.65 0.2 0.81 0.49 0.74 0.35 0 0.78-0.13 1.01 0.16 0.37 0.49 0.81 0.37 1.28 0.26 0.4-0.08 0.9-0.35 1.16-0.06 0.61 0.66 1.53-1.19 2.01 0.06 0.02 0.04 0.15-0.08 0.22-0.14 0.23-0.21 0.68-0.66 0.7-0.64 0 0-0.05 0.25-0.04 0.26 0.01 0.02 0.86 0.13 1.3 0.12 0.49-0.01 0.98-0.12 1.47-0.19 0.75-0.12 1.5-0.01 2.27-0.35 0.69-0.32 1.29 0.51 2.02-0.48 0.04-0.05 0.11 0.06 0.17 0.07 0.23 0.03 0.45 0.11 0.69 0.07 0.69-0.12 1.4-0.36 2.09-0.45s1.33 0.51 2.09-0.46c0.07-0.1 0.17-0.09 0.25-0.1 0.48-0.03 1.01-0.31 1.42-0.01 0.46 0.34 0.88 0.17 1.4-0.07 0.85-0.39 1.7-0.22 2.56-0.3 0.5-0.06 1.04-0.36 1.53-0.32 1.07 0.08 2.1 0.41 3.17 0.42 1.47 0.04 2.98-0.1 4.49-0.16 1.1-0.06 2.21-0.03 3.32-0.05 1.12-0.01 2.25-0.02 3.38-0.04 0.98-0.01 1.98-0.02 2.97 0.02 1.79 0.09 3.6 0.15 5.39 0.43 1.02 0.14 2.01 0.41 3.01 0.59 0.8 0.11 1.62 0.16 2.41 0.34 0.97 0.19 1.91 0.5 2.93 0.6 0.84 0.09 1.72 0.1 2.58 0.19 0.87 0.1 1.74 0.19 2.61 0.3 0.91 0.1 1.91-0.07 2.91-0.18 1-0.09 1.99-0.07 2.91 0.09 0.39 0.07 0.79 0.13 1.13 0.26 0.96 0.31 1.77 0.09 2.03-0.14 0.77-0.66 0.7-0.88 0.8-1.54 0.15-0.95 0.13-0.92-1.12-1.27zm-36.53-199.62s0.75 0.094 0.85 0.184c0.29 0.265 0.43 1.586 0.65 2.386 0.2 0.731 0.42 2.157 0.41 2.157 0 0-2.07-4.571-1.91-4.727zm2.58 20.984c0.18 0.121 0.4 0.446 0.42 0.625 0.02 0.118-0.47 0.27-0.55 0.243-0.1-0.036-0.38-0.661-0.35-0.782 0.04-0.121 0.34-0.179 0.48-0.086zm1.86-12.086c0.18 0.145 0.43 0.399 0.47 0.563 0.03 0.137-0.38 0.441-0.43 0.434-0.03-0.004-0.36-0.676-0.36-0.848-0.01-0.106 0.25-0.199 0.32-0.149zm-1.01 140.1c0.56 0.01 0.94 0.37 1.5 0.38 0.51 0 1.02-0.02 1.55-0.05 0.02-2 0.35-4.06 0.25-6.13-0.1-2-0.46-4.07-0.44-6 0.01-1.52 0.63-2.8 0.63-4.31-0.01-5.03-0.22-10.08-0.33-15.03-0.02-1.05 0.22-2 0.29-3.01 0.12-1.67 0.26-3.33 0.25-5.04 0-1.75-0.25-3.59-0.23-5.31 0.01-0.73 0.58-1.23 0.6-1.96 0.1-3.59 0.14-7.19 0.07-10.79-0.02-0.57-0.8-1.48-0.93-2.13-0.46-2.31 1.03-5.74 0.32-9.25-0.05-0.28-0.12-0.75-0.02-0.78 1.13-0.27 0.54-1.36 0.32-2.4-0.28-1.36-0.38-2.69-0.42-3.98-0.09-2.35-0.02-4.63-0.14-6.967-0.05-0.851-0.85-2.234-0.73-3.019 0.15-0.973 0.79-1.352 0.58-3.926-0.02-0.281 0.24-0.449 0.31-0.715 0.05-0.234 0.14-0.629 0-0.789-1.01-1.234-0.53-1.812-0.11-2.488 0.96-1.567 0.43-3.317-1.48-5.188-0.23-0.226-0.49-0.98-0.47-0.988 0 0 0.48 0.32 0.52 0.309 0.12-0.036 0.98-1.356 0.87-2.215-0.18-1.352-0.03-2.508-0.1-3.766-0.07-1.351 0.39-2.676-1.13-4.422-0.93-1.066-0.5-1.699 0.24-2.133 1.19-0.699-0.81-2.421-0.78-2.488 0 0 1.95 0.426 2.06 0.34 0.07-0.051 0.14-1.77-0.07-1.996-0.16-0.164-1.66-0.234-1.68-0.289 0 0 1.09-0.289 1.55-0.477 0.77-0.312-1-1.414-1.17-1.871-0.08-0.183-0.63-2.222-0.59-2.379 0 0 1.33-0.152 1.37-0.195 0.26-0.254 0.17-1.695 0.18-2.43 0-0.894 0.28-1.918-0.19-2.718-1.07-1.793 0.42-2.813 0.4-2.985 0-0.012-0.44-0.172-0.5-0.246-0.23-0.344 0.15-2.144-0.12-2.531-0.2-0.285-2.55-1.024-2.59-1.258-0.01-0.074 1.01-1.008 1.49-1.262 1.02-0.531 1.63-1.332 1.39-2.855-0.17-1.09-0.31-2.176-0.39-3.227-0.12-1.609 1.38-2.426 0.15-4.597-0.09-0.153 0.28-0.34 0.38-0.559 0.45-1.082-1.38-4.594-1.28-4.918 0.03-0.094 2.09-0.48 0.69-2.332-0.07-0.098 0.03-0.266 0.04-0.41 0.07-1.805 0.28-3.539 0.14-5.418-0.1-1.156-1.29-3.301-1.1-3.684 0.04-0.07 0.94-0.109 0.96-0.453 0.08-1.441-0.03-2.976-0.1-4.476-0.03-0.957-0.18-1.957-0.16-2.879 0.02-1.1878 0.22-2.2816 0.23-3.4652 0-1.1328-0.65-2.4843-0.1-3.4648 0.63-1.1406-0.39-2.3984-2.19-2.8984-0.6-0.1641-1.58-0.81644-1.57 0.23824 0.01 0.25-0.83 0.33985-1.26 0.11719-1.63-0.84375-1.57 0.07422-1.67 0.96487-0.12 1.0039 0.01 2.3359-0.64 2.8125-1.08 0.7968-0.94 2.1367-0.85 3.5664 0.06 1.1953 0.43 2.7772-0.16 3.4022-1.32 1.399 1.84 5.027-0.5 5.785-0.07 0.028 0.12 0.461 0.22 0.707 0.31 0.778 1.01 2.309 0.97 2.34 0 0-0.42-0.25-0.44-0.238-0.05 0.019-0.36 2.433-0.41 3.719-0.06 1.41 0.05 2.898 0.09 4.363 0.06 2.223-0.17 4.371 0.26 6.726 0.4 2.137-0.91 3.586 0.48 6.094 0.08 0.129-0.1 0.285-0.12 0.449-0.07 0.661-0.22 1.29-0.18 2 0.12 2.063 0.4 4.2 0.45 6.25 0.06 2.036-0.77 3.727 0.43 6.235 0.12 0.246 0.11 0.519 0.11 0.762 0 1.402 0.32 3.046-0.11 4.144-0.49 1.254-0.29 2.527-0.03 4.109 0.44 2.61 0.13 5.024 0.2 7.571 0.04 1.484 0.39 3.113 0.32 4.551-0.16 3.093-0.66 6.05-0.75 9.222-0.12 4.297 0.01 8.758 0.01 13.211 0 6.497-0.04 13.077-0.11 19.757-0.02 2.9 0.03 5.85-0.02 8.78-0.1 5.28-0.23 10.62-0.45 15.98-0.13 3.02-0.44 5.99-0.64 9.03-0.16 2.39-0.26 4.81-0.44 7.21-0.23 2.96-0.68 5.86-0.79 8.9-0.16 3.85-0.18 7.78-0.27 11.72 2.7-0.04 5.39-0.02 8.08 0.04" fill="#352b18"/></g>
  <g id="change4_1"><path d="m156.31 444.1l0.08 0.01-0.02-0.07zm-3.34-4.18c-0.15-0.44-0.36-0.49-0.61-0.48-0.25 0.55 0.08 0.5 0.61 0.48zm-0.63 13.97c0.19-0.42 0.21-0.8 0.1-1.32-0.26 0.68-0.27 0.66-0.1 1.32zm1-4.18c0.25-0.04 0.46-0.12 0.52-0.59-0.53 0.09-0.85 0.1-0.52 0.59zm-11.83-19.48l-0.08 0.05v0.03c-0.61-0.06-0.36 0.27-0.29 0.6 0.27-0.18 0.3-0.38 0.29-0.6h0.01zm-0.48 2.09c-0.07-0.97-0.85-0.71-1.46-0.86-0.27 0.27-0.59 0.38-0.76 0.98 0.51-0.26 0.65 0.34 0.94 0.54 0.41-0.26 0.92 0.31 1.28-0.66zm-2.41 24.25c-0.16 0.02-0.32 0.05-0.48 0.07 0.12 0.18 0.23 0.32 0.36 0.37 0.11-0.14 0.14-0.27 0.12-0.44zm-5.15-22.73c0.23-0.13 0.39-0.27 0.49-0.63-0.35-0.17-0.64-0.48-0.91-0.18-0.1 0.43 0.1 0.63 0.42 0.81zm-3.29 23c-0.32 0.23-0.5 0.48-0.52 1.07 0.36-0.44 0.65-0.68 0.52-1.07zm-9.18-11.22c-0.09-0.41-0.43-0.5-1.07-0.38 0.04 0.09 0.08 0.18 0.11 0.26 0.1 0.24 0.18 0.42 0.51 0.45 0.11-0.03 0.22-0.07 0.31-0.14 0.04-0.03 0.07-0.07 0.1-0.11 0.02-0.02 0.03-0.05 0.04-0.08zm29.17-11.1l0.05 0.09-0.02-0.09zm4.29 8.66c0.16 0.79 0.22 1.59 0.25 2.64-0.51-0.18-0.83-0.05-1.11 0.13-2.02 0.17-4.04 0.16-6.06 0.16 0 0.06-0.01 0.11-0.01 0.17 2.38 0.11 4.77 0.25 7.15 0.42-0.2 4.48-2.16 8.88-5.34 11.98-3.16 3.14-7.61 5.03-12.06 5.05-2.83 0.06-5.72-0.63-8.26-1.92-2.57-1.28-4.75-3.22-6.39-5.54-0.27-0.36-0.54-0.67-0.95-0.86 0.04-0.44 0.43-0.09 0.57-0.43-0.43-0.31-0.8-0.69-1.07-1.16-0.28-0.46-0.47-0.99-0.46-1.57l0.03-0.01 0.01-0.03 0.22-0.09 0.03 0.02c0.05 0.01 0.11 0.02 0.11 0.02s-0.05-0.02-0.1-0.05l-0.04 0.01-0.18-0.11-0.04 0.2-0.05 0.02 0.01 0.02c-0.18 0-0.36 0.01-0.73 0.03 0.63-0.8-0.37-1.61 0.47-2.29-0.49-0.04-0.7-0.34-0.76-0.78-0.3-1.65-0.39-3.33-0.09-4.97 0.18-0.72 0.34-1.43 0.25-2.12-0.24-0.26-0.4 0.05-0.57-0.08-0.03-0.08-0.08-0.16-0.07-0.24 0.06-0.99 0.67-1.78 1.37-2.35 0.67-0.52 1.03-1.03 1-1.87 0-0.29 0.12-0.6 0.36-0.67 0.76-0.21 0.94-0.86 1.32-1.36 1.07-1.36 2.43-2.4 3.66-3.6 0.46-0.49 1.14-0.4 1.73-0.39 0.29-0.6 0.57-1.13 1.11-1.62 0.45 0.13 0.87-0.02 1.31-0.19s0.92-0.31 1.43-0.05c0.17-0.3 0.38-0.63 0.71-0.82 0.5 0.19 1.15-0.05 1.45 0.61 0.33-0.11 0.01-0.61 0.4-0.66 0.96-0.05 1.97-0.37 2.98 0.1 0.5-0.48 1.05-0.34 1.57-0.13 0.54 0.21 1.04 0.49 1.63 0.36 0.05-0.09 0.13-0.2 0.2-0.32 0.14-0.01 0.43 0.05 0.81 0.17 0.19 0.07 0.39 0.15 0.6 0.25 0.22 0.09 0.44 0.19 0.67 0.31l0.17 0.08c0.34 0.17 0.64 0.38 0.92 0.57 0.09 0.06 0.18 0.12 0.26 0.18 0.16 0.12 0.3 0.22 0.42 0.33 0.05 0.06 0.1 0.11 0.15 0.15 0.28 0.01 0.59 0.01 0.94 0.01 0.49 0.61 1.05 1.1 1.7 1.49 0.86 0.57 1.26 1.55 2.09 2.12 0.32-0.34 0.18-0.93 0.71-1.18 0.11 0.04 0.27 0.06 0.36 0.14 0.14 0.13 0.26 0.29 0.24 0.39-0.12 0.79-1.13 1.02-0.98 1.84-0.5-0.3-0.74-1.13-1.64-0.73 0.1 0.52 0.8 0.44 0.92 0.9l0.01-0.02 0.02 0.02h-0.02c-0.04 0.48 0.09 0.84 0.28 1.17l0.69-0.48c0.04 0.08 0.09 0.15 0.15 0.26 0.01-0.13-0.02-0.23-0.03-0.34l0.61-0.42c1.5 2.11 2.48 4.58 2.96 7.13zm41.69-139.06c-0.2-0.23-0.38-0.46-0.54-0.67-0.49-0.65-0.95-1.08-1.57-0.88-0.16 0.2-0.3 0.4-0.35 0.7-0.02 0.12-0.02 0.25-0.01 0.41 0.01 0.07 0.02 0.16 0.03 0.25 0.73 1.21 1.46 1.16 2.44 0.19zm-24.03 51.36c0-1.03-0.61-1.14-1.56-1.01-0.53 0.64-0.9 1.13-0.92 1.98 1.04-0.16 1.97 0.05 2.48-0.97zm-3.64-13.72c0.49-0.46 0.98-0.99 1.18-1.88-0.88 0.75-1.44 1.07-1.75 1.5-0.32 0.41-0.49 0.89-0.84 1.86 0.41-0.62 0.92-1.01 1.41-1.48zm-9.23 24.26c-0.54 1.27-1.69 0.78-2.52 1.19-0.21 1.12-2.06 1.64-0.68 3.26 1.81 0.74 2.32-0.93 3.47-1.85-0.07-0.82 0.36-1.52-0.27-2.6zm-0.09 7.09c0.72-0.93-0.07-0.89-0.75-1.1 0.04 0.64 0.38 0.9 0.75 1.1l-0.01 0.02 0.08 0.19-0.02-0.18zm-6.71 15.03l-0.03-0.03-0.11 0.13zm-2.66-36.24l-0.08-0.01-0.01 0.12c-0.12 0.15-0.24 0.31-0.39 0.49 0.36-0.07 0.37-0.29 0.39-0.49zm-0.5 46.79c0.1-0.92-0.19-1.19-0.61-1.43-1.04 0.66-0.34 0.97 0.61 1.43zm-13.55-28.66c0.28-0.44 0.72-0.82 0.54-1.4-0.55 0.39-0.8 0.84-0.54 1.4-1.48 1.72-1.44 1.79-0.95 3.36 0.67-1.19 2.23-1.87 0.95-3.36zm-2.44 29.55c0.02-0.78-0.46-0.86-1.46-1.05 0.36 1.27 0.63 1.72 1.46 1.05zm-5.6 4.8c-1.41-0.39-1.77 0.38-2.07 1.26 0.39 0.89 1.15 1.07 1.87 1.36 0.91-0.94-0.18-1.79 0.2-2.62zm44.85-98.42c-0.21-0.31-0.35-0.65-0.57-0.89-0.23-0.23-0.57-0.34-1.11-0.2 0.33 0.79 1.13 0.63 1.68 1.09zm-1.61 1.73c0.01-0.72-0.07-1.27-0.3-1.62-0.25-0.34-0.64-0.5-1.19-0.47l-0.04-0.06-0.08-0.01c-0.18-0.19-0.34-0.4-0.53-0.58l0.02-0.04-0.02-0.19-0.04 0.2 0.04 0.03c-0.32 0.69 0.17 0.56 0.53 0.58l0.06 0.07h0.06c0.22 0.29 0.44 0.57 0.7 0.9 0.23 0.34 0.48 0.72 0.79 1.19zm-10.82-11.25c-0.24 0.22-0.56 0.51-1.15 1.04 0.83 0.13 1.17 0.84 1.82 0.59 0.24-0.85 0.17-1.41-0.67-1.63zm-0.57 4.23c-0.01-0.81-0.39-0.96-1.21-0.49 0.36 0.58 0.65 0.81 1.21 0.49zm-6.46-22.05c-0.42 1.06-0.97 1.67-0.05 2.42 0.62-0.63 0.78-1.21 0.05-2.42zm-26.13 8.22c-0.91-0.46-1.5-1.04-2.28-1.02-0.41 0.41-0.59 0.73-0.41 1.17 0.8 0.82 1.58 0.79 2.69-0.15zm-16.83 25.31c-0.55-0.54 0.19-1.01-1.17-1.39 0.47 0.46-0.15 0.96 1.17 1.39zm-6.33 0.73c-0.66 0.76-0.55 1.21 0.31 1.57 0.7-0.51 0.55-0.91-0.31-1.57zm-4.269 11.77c-1.019-0.03-1.508-0.05-1.633 0.66 0.715 0.74 1.04 0.36 1.633-0.66zm-13.648-18.1c-0.43 1.27-0.504 2.33-0.285 3.73 0.566-2.05 0.621-2.02 0.285-3.73zm-2.297 12.15c-0.496 0.18-0.914 0.47-1.078 1.79 1.066-0.36 1.769-0.49 1.078-1.79zm117.98 0.03c-0.1 0.75-0.24 1.49-0.42 2.2-0.2 0.7-0.47 1.37-0.74 2.02-0.25 0.59-0.47 1.17-0.64 1.73-0.18 0.57-0.38 1.11-0.49 1.67-0.26 1.1-0.23 2.27-0.15 3.48 0.09 0.87-0.09 1.94-0.56 2.39-0.77 0.78-1.3 1.62-1.66 2.56-0.37 0.92-0.6 1.95-1.03 2.81-2.22 4.95-5.46 8.95-8.16 13.01-0.25 0.39-0.54 0.74-0.85 1.02-0.32 0.27-0.66 0.49-1.01 0.68-0.71 0.4-1.46 0.68-2.2 0.99-0.54 1.69-0.97 3.03-2 4.61-1.13 0.17-2 1.02-2.92 1.78-0.92 0.78-1.9 1.58-3.2 1.71-0.17 0.75-0.37 1.58-0.91 2.29-1.24 0.2-2.34 1.49-3.56 0.64-0.57 0.58 0.57 1.08-0.17 1.62-1.85 1.35-3.15 3.02-5.37 3.76-0.1 1.37-0.98 1.91-1.98 2.39-0.97 0.48-1.92 0.9-2.26 1.97 0.09 0.18 0.21 0.42 0.34 0.66-0.05 0.1-0.18 0.24-0.34 0.41-0.14 0.17-0.33 0.38-0.55 0.6s-0.48 0.46-0.76 0.7c-0.28 0.25-0.58 0.5-0.89 0.75l-0.22 0.21c-0.4 0.4-0.82 0.77-1.22 1.11-0.13 0.1-0.26 0.2-0.38 0.3-0.23 0.2-0.5 0.36-0.67 0.52-0.09 0.07-0.17 0.14-0.25 0.2 0.03 0.48 0.07 0.99 0.11 1.57-0.51 0.3-1.01 0.64-1.31 1.13-0.31 0.49-0.54 1.02-0.72 1.57-0.13 0.37-0.32 0.7-0.54 1.02-0.21 0.32-0.39 0.69-0.59 1.04-0.4 0.7-0.78 1.43-0.84 2.26 0.91 0.2 1.75-0.33 2.72 0.29 0.05 0.17 0.18 0.39 0.14 0.57-0.05 0.25-0.2 0.48-0.36 0.54-1.35 0.44-2.93-0.88-3.99 0.18-0.1-0.55 0.12-1.12 0.17-1.67 0.11-0.51 0.02-1.04-0.75-1.63-0.41 0.31-0.42 0.73-0.41 1.14 0.01 0.42 0.11 0.88-0.17 1.22l0.05-0.02-0.01 0.07-0.03-0.04c-0.79 0.46-1.19 1.14-1.49 1.85l1.62 0.42c-0.05 0.16-0.1 0.31-0.18 0.53 0.2-0.16 0.32-0.31 0.48-0.45l1.44 0.36c-0.14 0.54-0.32 1.04-0.42 1.62l-0.29 1.72c-0.18 1.15-0.42 2.28-0.58 3.46l-0.32 3.66c-0.11 1.22-0.24 2.42-0.2 3.72-0.02 1.56-0.09 3.12-0.16 5.19-1-0.37-1.65-0.14-2.24 0.23-4.06 0.32-8.12 0.38-12.17 0.35-0.83-0.12-1.66-0.23-2.51-0.35 0.04-0.98 0.06-1.97 0.01-2.95-0.23 0.93-0.36 1.9-0.69 2.85l-0.83-0.13c-0.04-0.63-0.07-1.31-0.11-2.2-0.24 0.8-0.34 1.48-0.44 2.11-1.48-0.23-2.96-0.47-4.42-0.7-0.14-0.95-0.45-1.86-1.2-2.67-0.65 0.67-0.76 1.52-0.83 2.39-0.49-0.07-0.96-0.12-1.44-0.18-0.35-2.36-0.69-4.72-1.1-7.04-0.14-1.15-0.29-2.53 0.29-3.26 1.8-2.19 1.39-4.72 1.8-7.29 0.12-0.96 0.6-1.8 0.7-2.64-0.52-0.47-0.74-0.96-0.81-1.79 0.56-0.79 1.16-1.82 1.87-2.77l2.49 0.63c0.23-1.55 0.84-3.13 0.64-4.64-0.09-1.44 0.17-2.81 0.61-4.13 0.21-0.66 0.48-1.31 0.78-1.95 0.31-0.64 0.73-1.25 1.13-1.87 0.39-0.85 1.24-0.73 2.07-1.46 0.59-1.65 2.53-2.77 2.97-4.99-0.29-0.23-0.59-0.46-0.94-0.73 0.1-0.29 0.17-0.66 0.36-0.95 0.55-0.86 1.18-1.61 1.48-2.55 0.54-1.58 1.24-3.17 2.17-4.48 0.45-0.68 0.93-1.34 1.44-1.99l0.77-0.97 0.82-0.85c0.55-0.57 1.11-1.12 1.69-1.66 0.58-0.55 1.17-1.09 1.74-1.55 1.15-0.93 2.37-1.91 3.48-2.77 0.65-0.51 1.24-1.09 1.86-1.63 0.3-0.28 0.63-0.54 0.96-0.78 0.33-0.22 0.66-0.41 1.03-0.56 0.64-0.26 1.2-0.67 2.07 0.03-0.5 1.06-0.91 2.32-2.14 2.78-1.89 0.71-2.63 2.32-4.13 3.61 0.33 0.22 0.56 0.37 0.78 0.52 0.26-0.45 0.54-0.88 0.84-1.29 0.29-0.38 0.61-0.73 0.96-1.03 0.7-0.59 1.54-1 2.62-1.08 0.85-0.06 0.97-0.84 1.42-1.23 0.59-0.5 1.21-0.95 1.85-1.39 0.63-0.43 1.22-0.84 1.81-1.28s1.16-0.91 1.65-1.44c0.45-0.53 0.84-1.14 1.13-1.83 0.21-0.51 0.93-0.76 1.43-1.11 0.66-0.52 1.33-1.04 2.02-1.54 0.35-0.25 0.7-0.49 1.06-0.73 0.32-0.25 0.66-0.49 1-0.72-0.06 0.53-0.23 0.96-0.5 1.34-0.3 0.36-0.66 0.68-1.04 0.98-0.75 0.6-1.48 1.18-1.9 2.12 0.46 0.79 1.09 0.76 1.6 0.27 1.2-1.11 2.48-2.23 3.77-3.69 0-0.55 0.18-1.12 0.39-1.73 0.2-0.6 0.41-1.28 0.63-1.94l-0.51 0.49-0.28 0.27c-0.13 0.13-0.27 0.25-0.41 0.37-0.28 0.25-0.65 0.43-1.04 0.56-0.25 0.02-0.43-0.07-0.59-0.19-0.01-0.01-0.03-0.03-0.04-0.03l-0.02-0.01v-0.01c-0.17-0.15-0.3-0.35-0.45-0.54-0.35 0.01-0.59 0.16-0.81 0.36-0.21 0.2-0.41 0.44-0.65 0.63-0.09 0.07-0.19 0.13-0.29 0.18-0.16 0.08-0.38 0.13-0.61 0.13 0.13-1.09 0.59-1.7 1.24-2.21 0.66-0.51 1.31-0.96 1.65-1.64 0.18-0.34 0.36-0.68 0.54-1.01s0.31-0.67 0.48-0.98c0.33-0.64 0.8-1.21 1.21-1.73 0.43-0.54 0.66-1.27 0.77-1.91 0.14-0.66 0.49-1.22 1.23-1.56 0.3 0.22 0.52 0.37 0.73 0.53 0.07-0.01 0.18 0.01 0.2-0.02 1.27-1.7 1.82-3.65 1.74-5.56-0.58-0.34-1.04-0.67-1.33-0.98-0.3-0.32-0.37-0.65-0.48-0.98-0.1-0.34-0.09-0.68-0.04-1.05 0.01-0.36 0.02-0.73 0.03-1.09 0.03-0.59-0.28-1.06-0.54-1.45 0.05-0.27 0.24-0.36 0.47-0.38s0.43 0.04 0.43 0.04c0.38-0.88-0.15-1.11-0.38-1.43l0.05 0.01v-0.05c0.15-0.1 0.16-0.14 0.02-0.1-0.01 0-0.01 0.06-0.02 0.1l-0.03 0.03c-0.73-0.31-1.31-0.67-1.73-1.12-0.25-0.21-0.45-0.45-0.62-0.72-0.16-0.27-0.32-0.56-0.48-0.88-0.26-0.54-0.45-1.14-0.75-1.71-0.26-0.58-0.52-1.19-0.87-1.77-1.07-1.92-3.15-2.99-5.39-3.64-2.47-0.77-4.88-1.57-6.86-3.64-0.35-0.38-0.87-0.55-1.35-0.71-2.16-0.82-4.5-1.27-6.77-0.75-0.58 0.11-1.11 0.27-1.52-0.3-0.09-0.87 0.5-0.64 0.73-1.01-0.07-0.08-0.13-0.23-0.21-0.23-0.71-0.06-1.42-0.15-2.12-0.12-0.71 0.04-1.35 0.08-2.08 0.25-0.77 0.19-1.51 0.44-2.22 0.78-0.7 0.34-1.38 0.77-1.95 1.38-0.78 0.13-0.64-0.91-1.24-1.07-0.53 0.46-1.11 0.41-1.69 0.34-0.57-0.08-1.18-0.25-1.79-0.13 0.23-0.95 1-0.48 1.4-1.1-0.74-0.58-1.49-0.36-2.2-0.11-0.74 0.23-1.37 0.62-2.13 0.19-0.33-0.42-0.67-0.84-1.02-1.28-0.7 0.32 0.12 1.36-0.44 1.79 0 0-1.27 0.38-2.54 0.77-0.6 0.23-1.2 0.46-1.65 0.64-0.47 0.15-0.75 0.29-0.75 0.29-0.42 0.62-0.18 1.53-0.27 2.19 0.2 0.66 0.77-0.03 0.86 0.98-0.05 0.39-0.25 0.81-0.72 1.06-0.41-0.14-0.88-0.29-1.31-0.44-0.36 0.58-0.66 1.07-0.89 1.62-0.1 0.03-0.19 0.03-0.29 0.02-0.3-0.04-0.63-0.24-0.97-0.5-0.16-0.16-0.2-0.3-0.2-0.44 0.01-0.14 0.06-0.28 0.06-0.43 0-0.18-0.06-0.38-0.33-0.61 0.55-0.17 1.1-0.31 1.63-0.54 0.54-0.24 0.92-0.75 1.27-1.63-2.32 0.46-4.05 1.57-5.25 2.86-0.93-0.41-1.24-1.04-1.7-1.48l-0.01-0.04 0.03-0.16-0.09 0.14c0.03 0.02 0.04 0.04 0.07 0.06 0.08 0.83 0.21 1.69 0.4 2.69-0.18 0.38-0.34 0.79-0.53 1.17s-0.42 0.71-0.69 1.03c-0.5 0.66-1.25 1.12-2.26 1.46-0.06 0.56-0.2 1.07-0.35 1.59s-0.35 0.99-0.48 1.53c-0.28 1.02-0.41 2.15 0.14 3.42-2.01-0.95-1.81 1.04-3.6 0.57 0.98 1.48 0.8 2.7 1.28 3.8-0.34 0.42-0.71 0.6-1.34 0.69-0.16 0.53 0 1.16-0.15 1.77-0.43 1.56-1.19 3.3 0.26 4.88 0.47 0.51 0.14 1.34-0.09 1.84l-0.05 0.07c-0.01 0.01-0.02 0.04-0.03 0.04l-0.03-0.11c-1.16 0.08-2.33 0.16-3.5 0.2-1.17 0-2.34 0-3.51-0.01-2.344-0.02-4.688-0.1-7.028-0.22-4.68-0.22-9.363-0.59-14.035-0.94 0.117-3.4 0.484-6.44 1.039-9.55 0.566-3.09 1.328-6.15 2.344-9.18 1.015-3.03 2.269-6.03 3.781-8.96s3.355-5.75 5.41-8.43c2.086-2.66 4.465-5.13 7.029-7.38 2.6-2.19 5.37-4.21 8.3-5.82 5.83-3.32 12.05-5.43 18.11-6.61 1.95-0.4 3.88-0.63 5.81-0.92 1.91-0.16 3.83-0.37 5.72-0.45l2.81-0.07c0.94-0.02 1.84-0.07 2.92-0.02 1.03 0.05 2.07 0.06 3.1 0.14l3.07 0.29c8.14 1.06 15.96 3.55 23.09 7.57 1.15 0.61 2.21 1.11 3.4 1.26 0.58 0.99-0.81 0.47-0.59 1.3 1.41 0.4 2.79 1.09 4.11 1.91 1.29 0.88 2.52 1.95 3.47 3.34l-0.07 0.03 0.04 0.07-0.31 0.37-0.08-0.03c-0.14 0.02-0.27 0.03-0.28 0.03 0.01 0 0.16 0.03 0.3 0.06l0.06-0.06 0.55 0.15-0.24-0.52 0.06-0.06-0.03-0.04c0.33-0.14 0.69-0.29 1.4-0.59 0 1.21 0.84 2.02 1.58 2.95 0.75 0.92 1.48 1.8 1.18 2.98 1.02-0.25 1.87 0.38 2.72 1.43 3.14 4.04 5.96 8.73 7.4 14.06 0.64 2.35 1.01 4.79 1.87 6.87 0.68 0.57 0.69-0.59 1.13-0.34 0.11 0.22 0.28 0.43 0.34 0.68 0.35 1.59 0.46 3.16 0.23 4.67zm-84.78 129c0 0.04 0.06 0.07 0.09 0.1l0.09-0.15c-0.03-0.02-0.06-0.04-0.11-0.06-0.02 0.04-0.07 0.08-0.07 0.11zm5.96-15.37c0-0.03-0.04-0.05-0.06-0.07-0.03 0.01-0.07 0.01-0.09 0.03-0.01 0-0.01 0-0.01 0.01-0.02 0.04-0.02 0.13-0.01 0.14 0.13 0.04 0.19-0.01 0.17-0.11zm31.06 7.45l0.07 0.11 0.01-0.12zm-28.54-8.14c-0.04-0.01-0.09-0.04-0.12-0.03-0.02 0.01-0.05 0.08-0.04 0.1 0.07 0.11 0.14 0.13 0.19 0.05 0.02-0.02-0.01-0.08-0.03-0.12zm-7.36 8.01c0.2-0.1 0.31-0.22 0.15-0.44-0.23 0.08-0.27 0.23-0.15 0.44zm32.48-3.31c-0.02-0.37-0.24-0.51-0.57-0.51 0.18 0.17 0.25 0.44 0.57 0.51zm-33.51 8.69c-0.05-0.03-0.2 0.03-0.24 0.09-0.13 0.22 0 0.35 0.25 0.46 0.19-0.26 0.17-0.43-0.01-0.55zm36.33-37.15l0.16 0.04-0.02-0.12zm-32.3-18.71c0.61-0.86 0.61-0.89 0.6-2.08-0.62 0.55-0.6 1.33-0.6 2.08zm1.48 3.85c-0.77 0.85-1.03 1.4-1.03 2.09 0.71-0.59 0.64-0.56 1.03-2.09zm-1.71-3.69l0.22-0.05 0.01-0.11c-0.02 0.01-0.03 0.03-0.04 0.05zm-0.42 2.18c0.04-0.09 0.12-0.19 0.12-0.28 0-0.32-0.11-0.37-0.27-0.12-0.05 0.07-0.04 0.21-0.02 0.3 0.02 0.05 0.11 0.06 0.17 0.1zm77.99-96.87c0-0.12 0.03-0.27-0.02-0.36-0.06-0.09-0.21-0.12-0.32-0.18l0.07 0.49c0.08 0.02 0.16 0.03 0.27 0.05zm-0.89 50.74c0.02 0.06 0.11 0.07 0.16 0.11 0.07-0.06 0.15-0.11 0.2-0.16 0.01-0.02 0.03-0.03 0.03-0.05 0.04-0.12 0.03-0.35 0-0.35-0.3 0.02-0.44 0.2-0.39 0.45zm-37.45-2.51c-0.08-0.01-0.18-0.06-0.22-0.03-0.05 0.03-0.04 0.13-0.05 0.2 0.07 0.02 0.16 0.07 0.21 0.04 0.04-0.04 0.04-0.14 0.06-0.21zm-22.31 14.27l0.17 0.06-0.02-0.19zm28.44-28.97l0.08 0.12 0.08-0.07zm-13.82 11.13c-0.02-0.12-0.01-0.27-0.05-0.37-0.01-0.03-0.03-0.06-0.05-0.08-0.21-0.15-0.38-0.03-0.3 0.21 0.01 0.03 0.03 0.05 0.06 0.07 0.08 0.07 0.24 0.11 0.34 0.17zm-15.04 21.37c0-0.25-0.16-0.27-0.37-0.04-0.06 0.07-0.04 0.2-0.07 0.3 0.09 0 0.19 0.04 0.25 0 0.08-0.05 0.19-0.19 0.19-0.26zm13.88 38.62l-0.17-0.05 0.03 0.23zm40.53-49.99c-0.03 0.07 0.05 0.17 0.09 0.25 0.09-0.01 0.21 0.03 0.28-0.04 0.06-0.04 0.1-0.25 0.06-0.29-0.15-0.2-0.33-0.16-0.43 0.08zm13.81-30.04c-0.3 0.53-0.43 1.01 0.03 1.55 0.39-0.5 0.36-1.02-0.03-1.55zm-55.65 70.97c0.56-0.47 0.5-0.93 0.1-1.46-0.05 0.47-0.39 0.9-0.1 1.46zm14.47-57.83c-0.15 0.42-0.36 0.72 0.27 1.05 0.49-0.19 0.71-0.44-0.27-1.05zm7.92-9.84c-0.23-0.13-0.59-0.09-0.62 0.05-0.03 0.18 0.14 0.37 0.59 0.45 0.34-0.11 0.4-0.3 0.03-0.5zm28.94-22.33c0.01 0.92 0.26 1.4 0.74 1.58 0.13 0.05 0.33-0.25 0.31-0.46-0.04-0.77-0.45-1-1.05-1.12zm-74.8 78.53c-0.91 0.55-0.97 0.57-0.59 1.53 0.7-0.3 0.93-0.79 0.59-1.53zm42.92-53.79c-0.14-0.04-0.27-0.05-0.41-0.08 0.06 0.08 0.11 0.16 0.16 0.24l0.37-0.01c-0.04-0.05-0.09-0.14-0.12-0.15zm-0.25 0.16z" fill="#ea79c3"/></g>
 </g>
</svg>