<?xml version="1.0" encoding="UTF-8"?><svg xmlns="http://www.w3.org/2000/svg" xmlns:xlink="http://www.w3.org/1999/xlink" height="194.9" preserveAspectRatio="xMidYMid meet" version="1.0" viewBox="111.8 113.6 204.1 194.9" width="204.1" zoomAndPan="magnify"><g><g><g><g id="change1_2"><path d="M281.905,284.979c1.925,2.688,2.135,5.831,0.47,7.024l-19.168,13.73 c-1.664,1.192-4.573-0.019-6.498-2.706l-41.17-63.509l-38.197-52.594c-1.924-2.686-2.132-5.831-0.47-7.022l11.887-8.515 c1.665-1.192,4.574,0.02,6.497,2.705l36.806,52.116L281.905,284.979z" fill="#D8D4D3"/></g><g id="change2_2"><path d="M261.688,307.692c-2.148,0-4.523-1.453-6.198-3.792l-41.209-63.565l-38.152-52.529 c-2.449-3.418-2.503-7.422-0.13-9.123l11.887-8.515c0.675-0.484,1.503-0.739,2.393-0.739c2.148,0,4.523,1.452,6.197,3.79 l36.773,52.069l49.876,58.816c2.444,3.412,2.499,7.417,0.124,9.118l-19.168,13.73 C263.405,307.437,262.578,307.692,261.688,307.692z M190.278,172.429c-0.263,0-0.48,0.06-0.646,0.178l-11.887,8.515 c-0.83,0.595-0.654,2.877,0.816,4.929l38.191,52.585l41.215,63.574c1.209,1.688,2.785,2.481,3.72,2.481 c0.263,0,0.48-0.06,0.645-0.178l19.169-13.731c0.824-0.59,0.658-2.843-0.782-4.884l-49.883-58.826l-36.806-52.116 C192.788,173.223,191.213,172.429,190.278,172.429z" fill="#321019"/></g></g><g id="change3_2"><path d="M229.567,218.615l-22.183,15.891l1.087,1.49l40.347,64.099c1.925,2.688,5.222,3.62,7.364,2.086 l24.674-17.675c2.143-1.535,2.319-4.956,0.395-7.644l-51.312-57.719L229.567,218.615z" fill="#F2C70F"/></g><g id="change4_5"><path d="M254.991,300.063c-0.557,0-1.131-0.081-1.709-0.244c-1.619-0.459-3.096-1.529-4.159-3.014l-4.867-7.725 c-0.441-0.701-0.23-1.627,0.47-2.068c0.701-0.442,1.627-0.23,2.069,0.471l4.816,7.65c0.619,0.859,1.52,1.524,2.488,1.799 c0.845,0.241,1.633,0.141,2.217-0.278l3.454-2.473c0.673-0.482,1.61-0.327,2.093,0.347c0.482,0.674,0.327,1.61-0.347,2.093 l-3.453,2.472C257.169,299.734,256.113,300.063,254.991,300.063z" fill="#FFF"/></g><g><g id="change1_6"><path d="M236.13,134.75c-16.073-17.82-43.313-21.104-63.284-6.8c-0.663,0.474-1.269,0.997-1.899,1.497 l-33.582,24.054c-1.817,1.303-2.236,3.83-0.934,5.648l1.313,1.833c-0.53,0.166-1.052,0.4-1.531,0.744l-4.118,2.95l-1.604-2.238 c-1.302-1.818-3.655-2.361-5.256-1.214l-10.467,7.498c-1.6,1.146-1.844,3.548-0.542,5.366l24.218,33.81 c1.301,1.818,3.654,2.358,5.254,1.212l10.467-7.497c1.6-1.147,1.845-3.549,0.543-5.365l-1.605-2.24l4.118-2.949 c0.479-0.344,0.871-0.762,1.199-1.209l1.312,1.833c1.301,1.816,3.83,2.232,5.647,0.932l37.83-27.099 c1.816-1.301,2.234-3.829,0.935-5.646l-12.314-17.191c12.49-8.426,25.796-8.728,39.322-4.362c0,0,0.937,0.927,3.079-0.6 C237.836,135.147,236.13,134.75,236.13,134.75z" fill="#D8D4D3"/></g><g id="change2_3"><path d="M141.79,211.21c-1.765,0-3.472-0.912-4.566-2.44l-24.218-33.809c-0.842-1.176-1.229-2.583-1.09-3.959 c0.146-1.449,0.849-2.691,1.979-3.5l10.466-7.498c0.805-0.577,1.767-0.882,2.781-0.882c1.766,0,3.473,0.913,4.568,2.442 l0.729,1.019l2.899-2.077c0.048-0.035,0.097-0.069,0.146-0.102l-0.273-0.381c-1.78-2.486-1.207-5.958,1.279-7.741l33.583-24.054 l0.508-0.413c0.454-0.37,0.909-0.739,1.392-1.084c8.423-6.033,18.334-9.222,28.661-9.222c13.855,0,27.104,5.831,36.402,16.008 c0.431,0.251,0.832,0.684,0.959,1.328c0.311,1.568-1.289,2.949-2.894,4.092c-1.077,0.768-2.106,1.157-3.06,1.157c0,0,0,0,0,0 c-0.718,0-1.237-0.218-1.565-0.42c-5.485-1.75-10.756-2.637-15.67-2.637c-7.527,0-14.362,1.979-20.843,6.042l11.401,15.917 c1.78,2.487,1.205,5.958-1.28,7.738l-37.83,27.099c-0.949,0.679-2.065,1.038-3.229,1.038c-1.786,0-3.473-0.866-4.512-2.315 l-0.274-0.383c-0.047,0.036-0.095,0.071-0.143,0.106l-2.899,2.076l0.731,1.021c1.78,2.485,1.381,5.831-0.889,7.458l-10.468,7.498 C143.766,210.906,142.804,211.21,141.79,211.21z M127.142,162.122c-0.389,0-0.737,0.108-1.034,0.32l-10.467,7.498 c-0.419,0.3-0.682,0.784-0.74,1.363c-0.066,0.65,0.127,1.329,0.544,1.911l24.218,33.81c0.784,1.095,2.264,1.509,3.162,0.866 l10.467-7.497c0.926-0.664,1.015-2.132,0.198-3.272l-2.479-3.459l5.338-3.823c0.311-0.223,0.594-0.51,0.864-0.878l1.225-1.667 l2.515,3.515c0.786,1.097,2.448,1.377,3.555,0.585l37.83-27.098c1.141-0.818,1.405-2.412,0.588-3.553l-13.212-18.445l1.279-0.863 c7.275-4.908,15.288-7.396,23.815-7.396c5.292,0,10.946,0.959,16.807,2.851l0.34,0.109l0.093,0.092 c0.197-0.009,0.612-0.094,1.314-0.595c0.673-0.479,1.088-0.836,1.342-1.083c-8.724-9.477-21.113-14.902-34.068-14.902 c-9.697,0-19.004,2.995-26.915,8.661c-0.433,0.31-0.838,0.642-1.245,0.972l-0.596,0.481l-33.641,24.098 c-1.142,0.819-1.406,2.414-0.588,3.555l2.521,3.52l-1.981,0.618c-0.433,0.136-0.794,0.309-1.104,0.531l-5.338,3.824l-2.477-3.458 C128.746,162.578,127.93,162.122,127.142,162.122z" fill="#321019"/></g></g><g><g id="change1_5"><path d="M126.352,166.145l-5.338,3.824c-1.6,1.146-1.843,3.55-0.542,5.366l4.254,5.939" fill="#D8D4D3"/></g><g id="change4_4"><path d="M124.727,182.775c-0.468,0-0.928-0.218-1.221-0.626l-4.254-5.939c-0.842-1.175-1.229-2.582-1.09-3.959 c0.146-1.448,0.849-2.691,1.978-3.5l5.338-3.824c0.675-0.482,1.61-0.327,2.093,0.346c0.482,0.673,0.328,1.61-0.346,2.093 l-5.338,3.824c-0.419,0.3-0.682,0.784-0.74,1.363c-0.065,0.65,0.127,1.329,0.544,1.91l4.254,5.939 c0.482,0.674,0.327,1.611-0.346,2.093C125.334,182.684,125.029,182.775,124.727,182.775z" fill="#FFF"/></g></g></g><g><g><g><g id="change3_1"><path d="M235.805,199.35c-2.511-2.666-7.197-2.329-10.467,0.752l-2.75,2.59l-2.107,1.985" fill="#F2C70F"/></g><g id="change4_1"><path d="M220.481,206.176c-0.399,0-0.797-0.158-1.092-0.472c-0.568-0.603-0.54-1.552,0.063-2.12l4.857-4.575 c3.866-3.641,9.514-3.951,12.587-0.688c0.568,0.603,0.54,1.553-0.063,2.121c-0.604,0.569-1.553,0.54-2.121-0.063 c-1.941-2.061-5.685-1.693-8.347,0.815l-4.857,4.575C221.219,206.041,220.85,206.176,220.481,206.176z" fill="#FFF"/></g></g></g><g><g><g><g id="change1_1"><path d="M202.773,258.991c0.099-0.082,0.2-0.16,0.293-0.249l10.588-9.974l38.137-35.923l10.59-9.974 c0.092-0.088,0.177-0.185,0.265-0.277c4.625,1.874,9.572,2.741,14.5,2.585c8.457-0.188,16.875-3.378,23.519-9.636 c10.179-9.587,13.432-23.771,9.577-36.291l-0.277,0.262c-0.024-0.085-0.047-0.169-0.072-0.254l-24.657,23.226l-19.579-20.786 l25.644-24.154c-12.773-5.934-28.412-3.904-39.291,6.342c-0.619,0.584-1.208,1.185-1.775,1.802l-0.15-0.162 c-9.682,10.35-12.069,25.166-6.907,37.706l-10.025,9.444l-38.515,36.278l-10.026,9.443c-12.208-5.902-27.142-4.404-38.05,4.641 l0.15,0.16c-0.648,0.529-1.285,1.081-1.903,1.662c-10.878,10.248-13.841,25.738-8.679,38.842l25.644-24.153l19.578,20.785 l-24.657,23.225c0.083,0.031,0.166,0.059,0.249,0.088l-0.278,0.261c12.269,4.596,26.62,2.197,36.8-7.392 c6.643-6.258,10.331-14.471,11.022-22.9C204.939,268.709,204.368,263.72,202.773,258.991z" fill="#D8D4D3"/></g><g id="change2_1"><path d="M169.152,307.669C169.151,307.669,169.152,307.669,169.152,307.669c-4.467,0-8.845-0.792-13.013-2.354 c-0.486-0.182-0.843-0.602-0.944-1.11c-0.04-0.199-0.039-0.4,0.001-0.593c-0.014-0.427,0.154-0.844,0.471-1.142l23.565-22.196 l-17.521-18.602l-24.552,23.125c-0.362,0.341-0.869,0.481-1.356,0.372c-0.485-0.108-0.886-0.451-1.068-0.914 c-5.578-14.161-2.027-30.052,9.046-40.483c0.434-0.408,0.884-0.81,1.362-1.216c0.089-0.259,0.248-0.491,0.462-0.669 c6.616-5.486,14.995-8.508,23.592-8.508c5.197,0,10.404,1.115,15.127,3.232l57.086-53.771 c-4.967-13.106-2.044-28.047,7.58-38.336c0.19-0.204,0.433-0.348,0.697-0.421c0.427-0.446,0.86-0.876,1.293-1.285 c6.885-6.484,15.882-10.055,25.335-10.055c5.368,0,10.769,1.19,15.617,3.443c0.452,0.209,0.77,0.629,0.849,1.121 c0.079,0.491-0.09,0.99-0.453,1.331l-24.551,23.126l17.522,18.602l23.565-22.197c0.316-0.299,0.743-0.448,1.169-0.401 c0.194-0.027,0.395-0.016,0.589,0.035c0.501,0.132,0.899,0.514,1.052,1.009c4.185,13.59,0.359,28.084-9.982,37.824 c-6.66,6.273-15.366,9.84-24.514,10.043c-0.377,0.012-0.769,0.018-1.16,0.018c-4.474,0-8.846-0.791-13.014-2.353 l-58.507,55.109c1.431,4.639,1.929,9.445,1.482,14.303c-0.747,9.103-4.827,17.58-11.488,23.854 C187.608,304.097,178.608,307.669,169.152,307.669z M159.26,303.207c3.201,0.971,6.519,1.462,9.892,1.462 c8.689,0,16.958-3.282,23.285-9.241c6.12-5.766,9.869-13.554,10.556-21.932c0.44-4.781-0.112-9.496-1.64-14.025 c-0.199-0.589-0.014-1.239,0.465-1.635c0.003-0.003,0.077-0.063,0.08-0.066c0.044-0.036,0.09-0.071,0.131-0.11l59.325-55.879 c0.036-0.034,0.077-0.081,0.119-0.126l0.082-0.088c0.424-0.45,1.082-0.595,1.655-0.361c4.415,1.789,9.114,2.629,13.889,2.476 c8.419-0.187,16.418-3.464,22.538-9.228c8.97-8.449,12.604-20.791,9.749-32.652l-23.121,21.779 c-0.29,0.273-0.683,0.413-1.073,0.408c-0.397-0.012-0.774-0.182-1.047-0.471l-19.579-20.786 c-0.273-0.29-0.419-0.675-0.408-1.073c0.012-0.397,0.182-0.774,0.471-1.047L288.6,138.03c-3.897-1.5-8.101-2.287-12.284-2.287 c-8.686,0-16.953,3.281-23.277,9.237c-0.569,0.538-1.141,1.118-1.699,1.725c-0.188,0.204-0.426,0.351-0.687,0.426 c-8.632,9.667-11.031,23.524-6.087,35.532c0.237,0.575,0.094,1.236-0.358,1.663l-58.566,55.166 c-0.452,0.426-1.122,0.53-1.681,0.259c-4.563-2.206-9.667-3.372-14.763-3.372c-7.64,0-15.091,2.597-21.072,7.327 c-0.091,0.255-0.25,0.482-0.464,0.657c-0.664,0.541-1.26,1.063-1.825,1.593c-9.626,9.068-13.065,22.629-9.066,35.085 l23.975-22.581c0.603-0.57,1.553-0.539,2.12,0.063l19.578,20.785c0.273,0.289,0.419,0.676,0.408,1.073 c-0.012,0.397-0.182,0.774-0.471,1.047L159.26,303.207z" fill="#321019"/></g></g></g></g><g><g><g><g id="change1_3"><path d="M165.988,301.03c9.294,0.457,18.752-2.722,26.062-9.605" fill="#D8D4D3"/></g><g id="change4_2"><path d="M167.786,302.574c-0.622,0-1.246-0.015-1.872-0.046c-0.827-0.041-1.465-0.744-1.424-1.571 c0.041-0.827,0.747-1.448,1.572-1.425c9.304,0.458,18.174-2.81,24.96-9.199c0.603-0.57,1.553-0.539,2.12,0.063 c0.568,0.604,0.54,1.553-0.063,2.12C186.15,299.042,177.229,302.574,167.786,302.574z" fill="#FFF"/></g></g></g></g><g><g><g><g id="change1_4"><path d="M283.021,139.648c-9.464-1.358-19.434,1.446-26.936,8.512c-0.295,0.28-0.586,0.563-0.868,0.852" fill="#D8D4D3"/></g><g id="change4_3"><path d="M255.217,150.512c-0.377,0-0.755-0.142-1.047-0.426c-0.593-0.578-0.605-1.528-0.027-2.121 c0.295-0.303,0.601-0.6,0.91-0.894c7.585-7.145,17.856-10.389,28.181-8.909c0.82,0.118,1.39,0.878,1.272,1.698 c-0.118,0.82-0.875,1.387-1.698,1.272c-9.418-1.353-18.783,1.608-25.695,8.119c-0.277,0.263-0.554,0.532-0.822,0.807 C255.997,150.361,255.607,150.512,255.217,150.512z" fill="#FFF"/></g></g></g></g></g></g></svg>